<?xml version="1.0" encoding="utf-8"?>
<!-- Generator: Adobe Illustrator 22.0.1, SVG Export Plug-In . SVG Version: 6.00 Build 0)  -->
<svg version="1.1" id="Capa_1" xmlns="http://www.w3.org/2000/svg" xmlns:xlink="http://www.w3.org/1999/xlink" x="0px" y="0px"
	 viewBox="0 0 438.7 446.7" style="enable-background:new 0 0 438.7 446.7;" xml:space="preserve">
<title>b2bb2c</title>
<path d="M155.6,114.1c-11.1-18.2-36.5-21.9-59.1-11.5c-1.5,0.7-2.9,1.4-4.4,2.2c-11.5,6.1-11.7,12.6-0.6,20c2.1,1.4,3.7,1.2,4.9-0.6
	c6.6-9.2,13.1-6.2,19.7,0c0.8,0.6,1.7,1,2.7,1.3c0.4-0.5,0.8-1,1.1-1.6c1.6-3.1-2.9-9,4.2-9.6c5.2-0.4,11.5,5.6,12.2,11.3
	c0.8,5.3-1.8,10.6-6.5,13.2c-9.5,5.8-19.2,11.4-28.9,17.1c-12.1,7.2-18.9,18.1-20,32c-0.4,5.3-1.9,7.1-7.2,7
	c-22.4-0.2-44.8-0.2-67.3,0c-5,0-6.7-1.6-6.6-6.6c0.2-47.6,0.2-95.2,0.2-142.8c0-4.8,1.2-6.7,6.4-6.7c27.1,0.2,54.1-0.1,81.2,0.2
	c13,0.1,26,10,30.6,22.4c0.7,1.8,1.2,3.6,1.9,5.4c0.7,2,2.1,3.3,4.3,2.8s1.9-2.4,1.9-4c0.2-11.2,0.3-22.3,0.6-33.5
	c0.1-4.9,6.8-11.4,11.6-11.4c6.4,0.1,12.2,5.4,12.2,11.3c0.1,11.7,0,23.4,0,36.3c4-3.1,3.6-6.4,3.6-9.4c-0.1-7.9-0.7-15.8-0.7-23.8
	c0-5.8-1.7-12,4.9-16.1c2.4-1.5,1-5.1,1.1-7.8C159.7,4.3,164-0.7,171,0.1c5.6,0.7,12.6,1.3,11.4,10.3c-0.3,2.4-0.6,5.6,2.2,6.5
	c6.6,2.3,5.9,7.5,5.9,12.7c0,11.2,0,22.4,0.1,33.6c0,2.3-1.3,5.1,2,6.4c0.8,0.1,1.5-0.1,2.1-0.6c-0.3-3.1,1.3-5.6,2.4-8.2
	c-7.4-1.5,2.8-7.7-2.6-9.7c5.5-2.5-3.1-8.7,3-11c-4.6-2.2-0.4-6.7-2.5-9.5c-1.3-1.8-1.5-3.9-0.1-5.2c5-4.6,9.7-9.9,15.6-13.1
	c5-2.8,7.8,0.8,7.8,6.5c-0.2,15,0.1,30.1-0.2,45.1c-0.1,4.8,1,8.1,5.4,10.7c24.2,14.4,24.6,53.6,2.9,67.9c-5.3,3.5-1.7,4.8,1.4,6.4
	c13.7,7.1,20.3,18.6,20.6,33.8c0.5,20.9-9.1,34.1-29.4,39.9c-7.9,2.3-16,3.4-24.2,3.4c-22.1-0.2-44.3-0.3-66.4,0.1
	c-7,0.1-9.3-2.2-8.6-8.9c0.5-4.4,0.5-8.8,0-13.1c-0.8-6.8,2.2-8.1,8.5-8.1c21.6,0.1,43.2-0.4,64.8-0.6c12.1-0.2,18.9-6.3,18.7-16.8
	c-0.2-11.3-7-17.7-18.9-17.7c-10.1,0-20.2,0.2-30.4-0.1c-4.4-0.1-6.8,1-6.2,5.9c0.3,2.2-0.2,4.4,0.1,6.5c0.8,5.9-2,7.5-7.5,7.3
	c-12-0.3-24.1-0.1-36.1-0.1c-1.8,0-4,0.6-5.3-1.3c-1.5-2.3,0.3-4.2,1.5-5.9c5.6-7.4,13.4-11.9,21.4-16.1c9.9-5.3,20-10.5,24.3-21.9
	c1.2-3.2,3.9-2.5,6.2-2.5c8.8-0.1,17.5,0,26.3,0c12.7,0,19.5-5.6,19.3-15.9s-6.4-15.4-18.8-15.5c-6.3,0-12.6,0-18.9,0
	C156.7,101.2,156.7,101.2,155.6,114.1z M58.3,165.4c7.5-0.8,14.9,1.1,22.1-1.4c8.1-2.7,12.5-10,11.3-18.5
	c-1.4-10.2-6.3-14.8-15.9-14.9c-10.9-0.1-21.8,0.2-32.7-0.1c-5.4-0.2-7.5,1.8-6.8,7.1c0.3,1.9,0,3.8,0.2,5.7c0.5,7-3,15.9,1.6,20.4
	S51.5,164.5,58.3,165.4z M57.9,70.2c-21.7,0-21.7,0-21.7,21.7c0,1.9,0.1,3.8,0,5.7c-0.1,3.3,1,5.2,4.6,5.1
	c10.4-0.1,20.8,0.4,31.1-0.2c8.4-0.5,15-8.7,14.7-16.9c-0.3-9.5-6.4-15.2-16.5-15.4C66.1,70.1,62,70.2,57.9,70.2L57.9,70.2z
	 M172.7,47.8c0-5.5,0.1-10.9,0-16.4c0-1.9,1-5-2.1-5.2c-3-0.2-4.1,2.2-4.1,5c0,11.5-0.1,22.9-0.1,34.4c0,2.4,0.3,4.6,3.4,4.3
	c3.1-0.2,2.9-2.7,3-4.9C172.8,59.3,172.7,53.5,172.7,47.8z M162.7,49.4h0.1c0-4.6,0.2-9.3-0.1-13.9c-0.1-1.8,2-5.5-2.6-5.3
	c-3,0.2-4,2-4,5c0.1,10.1,0,20.2,0,30.3c0,1.9-0.2,4.1,2.6,4.2c2.8,0.2,4-1.4,4-4C162.8,60.3,162.7,54.8,162.7,49.4z M156.9,26.1
	c6-0.3,11.3-2.3,15-7.2C165.9,19.1,161.5,22.5,156.9,26.1L156.9,26.1z"/>
<path d="M282.6,383.6c-6.8,8-10.6,17.1-10.8,27.6c0,3.5-1.8,4.8-5.1,4.8c-21.9,0-43.7-0.1-65.6,0c-6.4,0-5-4.4-5-8
	c0-41.8,0.1-83.6,0.2-125.4c0-17.9,0-18,17.9-17.9c21.9,0,43.7,0,65.6,0c24.6,0.1,42.9,26.2,35,49.5c-1.4,4.3-4.1,5-8.1,5.2
	c-11,0.4-20.6,4.7-29.6,10.9c-4.1,2.8-5.2,5.2-1.2,8.9c1.7,1.7,3.3,3.6,4.7,5.7c2.4,3.3,4.6,3.2,7.1,0.1c5.1-6.2,10.9-7.8,17.6-2.3
	c3.2,2.6,5,1.7,6.6-2.1c2.1-4.9,6.9-5,10.6-0.9c5.5,6.2,4.9,13.9-1.5,19.6c-4.8,4.2-10.5,6.9-16.1,9.7c-8.1,4-15.6,9-22.5,14.9
	c1.2-3.3,2.6-6.5,3.5-9.9c2.8-9.9-4.1-20.8-13.5-21.1c-11.8-0.3-23.5,0-35.3-0.1c-4.4-0.1-5.7,1.8-5.5,5.9c0.3,7.6,0.3,15.3,0.2,23
	c-0.1,3.9,1.5,5.5,5.3,5.3C252.4,386,267.8,389,282.6,383.6z M253.6,294.8c-22.1,0-22.1,0-21.9,22.1c0,1.1,0,2.2,0,3.3
	c-0.1,3,1,4.6,4.2,4.6c10.9-0.1,21.8,0.4,32.6-0.3c8.4-0.6,12.7-7,12.3-16.2c-0.4-8.4-5.4-13.2-14.2-13.4
	C262.3,294.7,257.9,294.8,253.6,294.8L253.6,294.8z"/>
<path d="M347.1,344.3c-2.5-11.2-8.5-19-19.1-22.9c-4.4-1.5-2.9-3.7-0.8-6c5.2-5.7,11.3-10.4,18.2-13.9c5.4-2.8,7.7-6.8,6.9-12.6
	c-0.9-6.6,1-13.4-2.5-20.1c-2.2-4.3,3.6-5.9,6.2-8.3c3.5-3.2,9.3-5.6,2.5-11.1c-0.8-0.6-0.9-1.7-0.3-2.5c0.1-0.1,0.2-0.2,0.3-0.3
	c1.4-1.5,3.7-1.6,5.2-0.2c0,0,0,0,0,0c4.1,3.9,7.8,2.8,11.6-0.2c3.5-2.7,7-2.5,10.4,0.4c1.7,1.4,3.5,2.6,5.3,3.9
	c6.1,4.6,13,8.5,18.1,14c5.8,6.1-1.6,13.1-0.7,20.2c1,8.4,1.1,15.5,10.4,19.8c6.8,3.2,11.9,9.5,16.1,16c2.5,3.9,2.7,6.6-1.7,9.4
	c-6.3,3.9-12.2,8.3-18.2,12.6c-2.6,1.9-4.2,2.2-6.5-1c-18-24.1-41.8-23.7-58.9,0.6C348.7,343,347.9,343.7,347.1,344.3z M387.1,285.4
	c0.5-5.3,0.9-9.6-6.9-9.6s-6.9,4.8-7,9.7s-0.4,8.9,6.8,9C387.5,294.6,387.9,290.7,387.1,285.4L387.1,285.4z M405.1,280.4
	c1.4-6.2-1.3-7.9-7.3-7.9c-5.9,0-8.1,1.5-8,7.7c0.1,5.8,1.5,8.2,7.8,8C403.3,288,406.6,286.9,405.1,280.4L405.1,280.4z M363.1,272.8
	c-6.1-1-7.2,2.2-7.3,7.5c-0.2,6.2,2.3,7.8,8.1,7.9c6.6,0.1,6.5-3.5,6.7-8.3C370.9,274.3,368.9,271.7,363.1,272.8L363.1,272.8z
	 M380.1,260.4c1.3-1.4,5.2,1.5,5.1-2.5c0-2.8-3-3.5-5.5-3.3s-6.3,0.7-6.1,3.8S377.6,259.6,380.1,260.4L380.1,260.4z"/>
<path d="M342.1,362.8c0.7,9.3,1.2,17.9,4.3,26.2c4.9,13.5,13.2,23.7,28,25.7c14.3,2,26.6-2.7,33.9-16.1c2.1-3.9,4.1-3.3,7.1-1.5
	c6.5,4,13,8,19.8,11.6c4.2,2.2,4.5,4.5,2,8.3c-11.7,18.3-29.3,26.5-49.9,29.1c-25.7,3.2-46.4-6.6-62.7-26.4c-0.6-0.8-0.9-1.8-1.9-4
	c7.1,0,13.3-0.3,19.4,0.1c5.7,0.3,6-3,5.9-7.3s0.1-7.5-5.8-7.4c-12.8,0.3-25.7,0.1-38.5,0c-2.4,0-5.6,1.1-6.8-1.4
	c-1.4-2.8,1.5-5,3.1-7c5.7-6.9,13.4-11.1,21.1-15.3C328.5,373.4,335.8,369.2,342.1,362.8z"/>
<path d="M141.5,237.5c5.1,0.2,10.8,2,13.6,8.3c2.9,6.5,0,11.5-4.7,16c-1.7,1.6-6,3-3.5,6.2c2.9,3.8,6.5,7.6,10.7,9.9
	c2.1,1.1,2.5-3.5,3-5.7c0.7-3.4,0.7-6.9,5.6-6c5.4,1,2.6,5.1,2.5,7.9c0,1.9-0.6,3.8-1.6,5.5c-3.4,4.9-1.3,8.3,2.3,12
	c1.9,2,6.2,4.5,4,7.1c-2.3,2.8-8.1,2.7-10.4,0.1c-4.8-5.5-8.7-2.9-13.7-0.9c-12.5,5.2-26.2-0.2-29-10.9c-1.9-7.1,0.5-12.9,5.6-17.8
	c2.8-2.7,4-4.8,1.4-8.9C120,249,126.7,237.6,141.5,237.5z M141,291.3c3.6,0,7.9-0.1,9.5-3.4c1.8-3.7-3.2-4.8-4.9-7.4
	c-1.1-1.5-2.3-3-3.7-4.3c-4.9-5.3-9.1-4.5-11.9,2.3C127.3,285.1,132.6,291.3,141,291.3z M140.3,245.8c-3.8,0-6.9,1.3-7,5.8
	c-0.1,3.9,2.1,7.4,5.9,7.4c4,0,6.8-3.3,7.3-7.4C147,247.4,144.2,245.9,140.3,245.8L140.3,245.8z"/>
</svg>
