<svg id="Capa_1" data-name="Capa 1" xmlns="http://www.w3.org/2000/svg" viewBox="0 0 438.69 446.67"><defs><style>.cls-1{fill:#5c3c7d;}</style></defs><title>b2bb2c</title><path class="cls-1" d="M235.7,189.17c-11.12-18.19-36.48-21.94-59.06-11.5-1.48.69-2.95,1.44-4.4,2.21-11.53,6.08-11.66,12.59-.61,20,2.12,1.42,3.66,1.16,4.91-.56,6.63-9.16,13.12-6.16,19.73,0a10.51,10.51,0,0,0,2.68,1.34,17,17,0,0,0,1.14-1.58c1.62-3.12-2.85-9,4.18-9.61,5.16-.45,11.54,5.58,12.23,11.33A12.79,12.79,0,0,1,210,214c-9.55,5.83-19.25,11.42-28.86,17.15-12.15,7.24-18.88,18.13-20,32-.42,5.32-1.85,7.06-7.16,7q-33.63-.33-67.27,0c-5,.05-6.65-1.62-6.63-6.59q.28-71.37.17-142.75c0-4.83,1.24-6.72,6.42-6.68,27.07.21,54.14-.08,81.21.17,13,.11,26,10,30.59,22.38.66,1.79,1.22,3.63,1.85,5.43.71,2,2.12,3.31,4.33,2.78s1.87-2.43,1.9-4c.2-11.17.34-22.34.55-33.51.1-4.9,6.82-11.45,11.55-11.37,6.41.1,12.18,5.37,12.2,11.33.06,11.71,0,23.42,0,36.35,4-3.15,3.6-6.45,3.56-9.39-.1-7.92-.66-15.83-.68-23.75,0-5.75-1.74-12,4.88-16.11,2.38-1.48,1-5.13,1.08-7.81.17-7.19,4.48-12.21,11.45-11.39,5.58.65,12.59,1.32,11.42,10.34-.3,2.37-.58,5.55,2.18,6.51,6.6,2.29,5.93,7.51,5.91,12.69,0,11.21,0,22.42.08,33.63,0,2.25-1.25,5.13,2,6.37a3.15,3.15,0,0,0,2.13-.55c-.25-3.08,1.27-5.59,2.42-8.23-7.37-1.51,2.79-7.67-2.57-9.71,5.49-2.48-3.11-8.72,2.95-11-4.56-2.2-.42-6.7-2.5-9.5-1.34-1.82-1.52-3.89-.07-5.23,5-4.62,9.74-9.88,15.58-13.09,5-2.75,7.83.77,7.77,6.5-.16,15,.08,30.08-.19,45.12-.09,4.81,1,8.11,5.42,10.74,24.23,14.45,24.64,53.55,2.92,67.87-5.27,3.47-1.74,4.79,1.4,6.41,13.68,7.1,20.25,18.58,20.64,33.8.54,20.85-9.15,34.1-29.4,39.87A85.26,85.26,0,0,1,275,301.15c-22.15-.18-44.31-.34-66.45.1-7,.14-9.27-2.21-8.6-8.88a61.78,61.78,0,0,0,0-13.11c-.75-6.78,2.23-8.14,8.47-8.1,21.58.12,43.17-.35,64.76-.62,12.11-.16,18.9-6.29,18.69-16.81-.23-11.33-7-17.68-18.9-17.73-10.12,0-20.24.16-30.35-.09-4.42-.1-6.79,1-6.24,5.9.25,2.16-.2,4.4.07,6.55.75,5.93-2,7.48-7.54,7.33-12-.32-24.06-.1-36.09-.14-1.84,0-4,.61-5.27-1.31-1.48-2.32.27-4.24,1.52-5.9,5.57-7.43,13.42-11.87,21.41-16.13,9.93-5.29,20-10.51,24.34-21.94,1.22-3.19,3.9-2.51,6.21-2.53,8.75-.09,17.5,0,26.26,0,12.74,0,19.55-5.63,19.29-15.93s-6.44-15.44-18.83-15.46c-6.29,0-12.58,0-18.87,0C236.87,176.33,236.87,176.33,235.7,189.17Zm-97.3,51.31c7.48-.76,14.91,1.09,22.09-1.35,8.06-2.73,12.47-10,11.27-18.52-1.43-10.16-6.3-14.77-15.92-14.85-10.89-.08-21.79.19-32.67-.14-5.44-.16-7.5,1.83-6.79,7.12.25,1.88,0,3.82.16,5.71.53,7-3,15.9,1.57,20.43S131.61,239.61,138.4,240.48Zm-.35-95.22c-21.67,0-21.67,0-21.66,21.66,0,1.91.08,3.82,0,5.73-.14,3.26,1,5.17,4.62,5.14,10.37-.1,20.77.38,31.11-.24,8.4-.5,15-8.72,14.74-16.9-.27-9.48-6.43-15.24-16.51-15.38C146.24,145.21,142.15,145.26,138.05,145.26Zm114.82-22.37c0-5.46.1-10.92-.05-16.37,0-1.94,1.05-5-2.14-5.24-3-.22-4.14,2.15-4.15,5q-.06,17.19-.09,34.38c0,2.36.3,4.55,3.44,4.33s2.94-2.72,3-4.87C252.9,134.35,252.87,128.62,252.87,122.89Zm-10,1.58h.1c0-4.64.24-9.3-.11-13.92-.14-1.85,2-5.53-2.59-5.26-3,.17-4,2-4,5,.11,10.11,0,20.22,0,30.33,0,1.89-.18,4.07,2.58,4.24s4-1.41,4-4C242.89,135.4,242.87,129.94,242.87,124.47Zm-5.8-23.31c6-.33,11.33-2.28,15-7.21C246.07,94.2,241.64,97.62,237.07,101.16Z" transform="translate(-80.13 -75.1)"/><path class="cls-1" d="M362.75,458.74c-6.77,8-10.65,17.09-10.81,27.62-.05,3.55-1.79,4.78-5.1,4.77-21.86,0-43.72-.13-65.58,0-6.42,0-5-4.4-5-7.95q0-62.71.19-125.43c0-17.94,0-17.95,17.91-17.94,21.86,0,43.72-.05,65.58,0,24.58.06,42.93,26.17,35,49.5-1.44,4.25-4.15,5-8.06,5.17-11,.37-20.58,4.7-29.56,10.85-4.06,2.77-5.16,5.21-1.16,8.87a37.73,37.73,0,0,1,4.67,5.69c2.39,3.28,4.59,3.2,7.13.1,5.1-6.22,10.88-7.83,17.62-2.31,3.16,2.59,4.95,1.71,6.61-2.1,2.12-4.86,6.92-5,10.56-.9,5.45,6.19,4.91,13.88-1.52,19.59-4.75,4.21-10.51,6.86-16.1,9.7a112.06,112.06,0,0,0-22.48,14.87c1.19-3.29,2.57-6.53,3.52-9.9,2.78-9.87-4.08-20.81-13.54-21.08-11.75-.33-23.52.05-35.28-.15-4.44-.08-5.66,1.82-5.53,5.89.25,7.65.29,15.32.18,23-.06,3.87,1.5,5.48,5.33,5.29C332.49,461.1,347.9,464.06,362.75,458.74Zm-29-88.87c-22.08,0-22.08,0-21.87,22.13,0,1.09,0,2.18,0,3.26-.13,3,1,4.6,4.21,4.58,10.88-.09,21.8.41,32.65-.31,8.42-.56,12.71-7,12.27-16.24-.41-8.43-5.37-13.17-14.19-13.4C342.43,369.78,338.08,369.87,333.72,369.87Z" transform="translate(-80.13 -75.1)"/><path class="cls-1" d="M427.24,419.42c-2.51-11.2-8.55-19.05-19.12-22.85-4.35-1.55-2.9-3.67-.8-6a64,64,0,0,1,18.16-13.88c5.41-2.77,7.67-6.77,6.87-12.58-.91-6.64,1-13.39-2.46-20.06-2.22-4.32,3.59-5.9,6.17-8.31,3.47-3.23,9.27-5.61,2.46-11.07a1.81,1.81,0,0,1,0-2.86,3.68,3.68,0,0,1,5.23-.15c4.07,3.85,7.78,2.75,11.62-.2,3.55-2.72,7-2.45,10.36.43,1.66,1.41,3.52,2.59,5.27,3.9,6.12,4.6,12.95,8.52,18.14,14,5.77,6.08-1.56,13.08-.69,20.18,1.05,8.44,1.08,15.46,10.35,19.78,6.84,3.19,11.88,9.45,16.09,16,2.5,3.91,2.72,6.62-1.72,9.38-6.26,3.88-12.2,8.3-18.2,12.59-2.63,1.89-4.18,2.16-6.54-1-18-24.07-41.82-23.72-58.92.61A16.92,16.92,0,0,1,427.24,419.42Zm40-58.91c.45-5.25.85-9.61-6.94-9.56s-6.89,4.75-7,9.67-.44,8.94,6.78,9C467.61,369.75,468,365.82,467.23,360.51Zm18-5c1.42-6.2-1.27-7.89-7.31-7.91-5.88,0-8.1,1.47-8,7.72.12,5.79,1.46,8.16,7.75,8C483.47,363.11,486.71,362,485.25,355.5Zm-42-7.61c-6.1-1-7.17,2.16-7.32,7.49-.18,6.21,2.25,7.78,8.08,7.89,6.59.12,6.52-3.51,6.72-8.26C451,349.35,449.06,346.77,443.29,347.89Zm17-12.39c1.28-1.42,5.18,1.52,5.14-2.49,0-2.78-3-3.5-5.52-3.33s-6.3.67-6.11,3.75S457.7,334.75,460.28,335.5Z" transform="translate(-80.13 -75.1)"/><path class="cls-1" d="M422.25,437.92c.67,9.26,1.23,17.87,4.25,26.16,4.9,13.48,13.2,23.7,28,25.71,14.32,2,26.56-2.69,33.89-16.11,2.14-3.91,4.12-3.28,7.09-1.46,6.52,4,13,8,19.78,11.61,4.18,2.23,4.48,4.48,2,8.31-11.7,18.25-29.32,26.51-49.92,29.05-25.74,3.16-46.43-6.59-62.69-26.39-.63-.76-.88-1.82-1.9-4,7.07,0,13.26-.26,19.41.08,5.74.31,6-3,5.93-7.28s.06-7.53-5.77-7.41c-12.84.25-25.68.09-38.51,0-2.37,0-5.62,1.06-6.83-1.37-1.38-2.78,1.5-5,3.13-7,5.67-6.9,13.43-11.08,21.09-15.28C408.62,448.5,415.91,444.32,422.25,437.92Z" transform="translate(-80.13 -75.1)"/><path class="cls-1" d="M221.59,312.62c5.15.22,10.81,2,13.59,8.32,2.86,6.47,0,11.49-4.69,16.05-1.68,1.64-6,2.95-3.46,6.21,2.94,3.83,6.52,7.64,10.67,9.86,2.05,1.08,2.53-3.54,3-5.67.69-3.37.73-6.88,5.6-5.95,5.38,1,2.6,5.07,2.52,7.9a10.56,10.56,0,0,1-1.57,5.47c-3.41,4.94-1.31,8.34,2.27,12,1.91,2,6.22,4.48,4,7.08-2.33,2.77-8.08,2.72-10.38.09-4.8-5.52-8.72-2.91-13.66-.86-12.48,5.17-26.16-.19-29-10.89-1.85-7.09.47-12.94,5.58-17.81,2.82-2.7,4-4.75,1.37-8.91C200.14,324.15,206.83,312.73,221.59,312.62Zm-.44,53.73c3.61,0,7.87-.09,9.47-3.38,1.81-3.73-3.24-4.83-4.86-7.38a32.79,32.79,0,0,0-3.69-4.32c-4.92-5.33-9.13-4.51-11.9,2.3C207.47,360.21,212.77,366.38,221.15,366.35Zm-.73-45.49c-3.76,0-6.93,1.29-7,5.78-.05,3.86,2.14,7.41,5.9,7.43,4,0,6.78-3.29,7.29-7.43S224.35,321,220.42,320.86Z" transform="translate(-80.13 -75.1)"/></svg>