<?xml version="1.0" encoding="utf-8"?>
<!-- Generator: Adobe Illustrator 22.0.1, SVG Export Plug-In . SVG Version: 6.00 Build 0)  -->
<svg version="1.1" id="Capa_1" xmlns="http://www.w3.org/2000/svg" xmlns:xlink="http://www.w3.org/1999/xlink" x="0px" y="0px"
	 viewBox="0 0 478.4 381.5" style="enable-background:new 0 0 478.4 381.5;" xml:space="preserve">
<title>delivery</title>
<path d="M478.4,294.3c-0.4,1.2-0.7,2.4-0.9,3.6c-7.1,53.9-58.6,91.8-111.9,82.1c-52.4-9.1-87.5-59-78.4-111.4
	c1.8-10.3,5.2-20.2,10.2-29.3c0.6-1.1,2-2,1.1-3.9c-1.1,1.3-2.2,2.4-3.2,3.5c-17,19.9-34,39.8-50.9,59.7c-5.5,6.5-12.2,9.8-20.8,9.7
	c-10.1-0.1-20.2,0.1-30.4-0.1c-2.7,0-3.7,0.8-4.5,3.3c-13.7,44.4-51.9,71.5-98.4,69.6c-15-0.6-29-5.1-42.1-12.6
	c-3-1.7-4.6-4.2-3.9-7.7c0.6-3.3,2.9-5.1,6.1-5.6c2.3-0.4,4.2,0.9,6.1,1.9c18.3,9.9,37.6,13,57.8,8.1c28.8-7,48.5-24.8,59.3-52.4
	c1.6-4,0.3-4.8-3.4-4.5c-3.3,0.3-6.5,0.3-9.8,0c-3.4-0.3-5.1,0.8-6.6,4.1c-14,29.8-48.7,44.1-79.4,32.9
	c-33.2-12-50.4-48.6-38.5-81.8c10.9-30.4,42.8-47.8,74.3-40.7c2.1,0.5,4,1.6,5.8-0.9c3.2-4.4,6.6-8.6,10-12.9
	c-0.4-0.4-0.9-0.7-1.4-1c-1-0.4-2-0.8-3.1-1.1c-24.8-7.7-48.4-4.9-70.2,9.3c-41.2,26.7-49.9,82-19.4,120.5c0.3,0.4,0.6,0.7,0.9,1.1
	c3.3,4.3,3.4,8.1,0.3,10.7c-3.6,3.1-7.6,2.4-11.2-2c-33.1-39.7-28.9-99.3,10.3-133.3c29.3-25.4,62.9-30.9,99.4-17.5
	c1.6,0.6,3.2,2.1,4.9-0.2c2.4-3.4,5-6.6,7.6-10c-2.1-1-3.8-0.6-5.5-0.6c-35,0-70.1,0-105.1-0.1c-11.6,0-20.7-7.3-23.3-17.9
	c-2.5-10.2,2.4-20.8,11.7-25.6c3.3-1.6,3.9-3.5,3.9-6.8c-0.1-30.1-0.1-60.1-0.1-90.2C26.2,18.2,44.5,0,70.6,0c18.7,0,37.4,0,56.1,0
	c26.5,0,44.5,18,44.6,44.6c0.1,12.4,0,24.9,0,37.4c0,6.9-0.9,6.3,6.1,6.4c5.9,0.1,11.8-0.1,17.7,0.3c16.8,0.9,27.3,11.4,28.2,28.3
	c0.2,3.9,1.3,4.9,5.1,4.9c27.3-0.2,54.5-0.1,81.8-0.1c1.4,0,2.8-0.1,4.5-0.2c-0.5-1.9-0.8-3.6-1.2-5.2c-4.4-16.5-8.8-33-13.1-49.6
	c-3.2-12.3,2.4-24,13.6-28.4c11.5-4.6,23.5,0.1,29.5,11.7c0.7,1.9,2.6,3.1,4.6,2.8c9-0.1,18.1,0,27.1,0c3.4-0.1,6.9,0.2,10.2,1.1
	c11.2,3.3,18.9,14.2,17.9,25.4c-1.1,12.3-10,21.8-22,22.8c-6.6,0.6-13.4,0.3-20.1,0.3c-2.3,0-3.4,0.4-2.6,3.1
	c1.6,5.5,3.1,11.1,4.4,16.7c0.5,2.3,1.6,3,3.9,2.9c4.8-0.1,9.7-0.2,14.5,0.1c11.5,0.7,20.8,10.2,22,22.3
	c1.2,11.9-5.4,21.1-16.9,24.7c-3.1,1-8-0.9-9.1,2.5c-0.9,2.7,1.5,6.5,2.1,9.8c0.6,3.2,1.9,4.4,5.5,4.5c19.8,0.3,38,6,53.9,18.1
	c5.7,4.3,11,9.2,15.6,14.7c2.6,2.8,2.4,7.1-0.3,9.7c-2.9,2.8-6.7,2.7-10-0.3c-0.8-0.7-1.5-1.6-2.2-2.4
	c-14.6-15.2-32.5-23.6-53.5-25.7c-3.4-0.3-4.1,0.7-3.1,3.8c1.2,3.5,2.1,7.1,2.9,10.8c0.6,3.2,2.2,4.2,5.2,4.7
	c34.8,6.3,57.8,39.7,51.5,74.4c0,0.1,0,0.1,0,0.2c-4.7,26.1-26.1,47-52.8,51.3s-53.7-9.2-66.5-33.4c-12.6-23.7-9.5-54.2,9.8-72.6
	c8.4-8,8.7-14.7,5.2-24c-1-2.8-1.5-3.5-4.2-1.6c-26.3,18.9-39.3,44.6-36,76.8c5.1,48.1,47.3,79.7,95.3,72.7
	c42.3-6.2,73.9-48.4,68.1-90.7c-1-7.4-2.9-14.7-5.5-21.6c-1.7-4.5-0.1-8.4,3.6-9.8s7.4,0.2,9.3,4.6c0.6,1.4,1.1,2.9,1.7,4.3
	c2.9,7.3,3.7,15,5.5,22.6L478.4,294.3z M115.6,115.9c2.6-15.6,14.4-26.4,30.2-27.5c3.7-0.3,8.5,1.6,10.7-1s0.6-7.5,0.7-11.4
	s-0.1-7.8,0.1-11.7c0.1-2.8-0.8-3.8-3.7-3.7c-9.2,0.2-18.4,0.1-27.6,0.1c-20.7,0-41.4,0-62.1,0c-6,0-9.3-3.7-8-8.6
	c1.1-4.2,4.2-5.4,8.2-5.4c13.5,0,27.1,0,40.6,0c16.2,0,32.4-0.1,48.6,0c3,0,4-0.6,3.9-3.9c-0.8-18-11.8-28.9-29.7-28.9
	c-19,0-38,0-57,0c-18.1,0-30.2,12-30.2,30.1c0,29.9,0,59.8-0.1,89.7c0,3.7,0.9,4.6,4.6,4.6c23.8-0.2,47.6-0.1,71.5-0.1
	c1.2,0,2.4-0.1,4-0.2C116.6,131,114.3,123.8,115.6,115.9z M223.3,294.4c4.1,0.2,8-1.7,10.5-4.9c30.9-36.3,61.8-72.5,92.8-108.6
	c2.2-2.2,2.9-5.4,1.9-8.3c-3.1-11.1-6-22.2-8.8-33.4c-0.7-2.8-2-3.6-4.8-3.6c-30.5,0.1-61,0.1-91.5,0.1c-1.9,0-3.5-0.1-4.7,2
	c-5.9,10.1-15.4,14-26.6,14.6c-2.6,0-5,1.3-6.5,3.4c-31.5,40.5-63.1,81-94.7,121.5c-2.8,3.6-5.1,7.3-2.8,11.9s6.4,5.3,11,5.3
	c20.5-0.1,41.1,0,61.6,0C181.6,294.3,202.5,294.3,223.3,294.4z M390.7,282c-8.9-33.8-17.8-67.6-26.7-101.4
	c-10.4-39.5-20.9-79-31.3-118.5c-0.4-1.8-0.9-3.6-1.5-5.4c-1.8-4.6-6-6.9-10.4-5.8c-4.9,1.2-7.9,5.5-7,10.5c0.7,4.1,2,8.2,3,12.2
	c18.7,70.6,37.3,141.2,56,211.9c1.8,6.8,4.4,9.1,9.5,8.9C389.1,294,392.6,289.2,390.7,282L390.7,282z M191.5,138.4
	c10.3-0.2,17.9-7.6,18.1-17.5s-6.9-18-17.2-18.3c-15.2-0.4-30.5-0.4-45.7,0c-9.8,0.1-17.6,8.2-17.5,18c0,0,0,0.1,0,0.1
	c0.2,9.9,8.1,17.6,18.5,17.7c7.3,0.1,14.6,0,21.9,0l0,0C176.9,138.4,184.2,138.5,191.5,138.4z M114,152.4H36.5
	c-1.4-0.1-2.8,0-4.2,0.1c-5,0.6-8.6,5.1-8,10.2c0.5,4.1,3.7,7.4,7.8,8c1.5,0.2,3.1,0.2,4.7,0.2c38.1,0,76.3,0,114.4,0.1
	c3.2,0.3,6.4-1.3,8.1-4.1c3.3-4.7,7-9,11.2-14.5L114,152.4z M109.3,333.4c2.1-0.5,2.7-1.3,1.6-3.5c-3.3-6.3-6.5-12.7-9.6-19.2
	c-0.9-1.9-2.1-2.3-4-2.4c-5.9-0.2-11.4-1.6-16-5.6c-1.5-1.3-2.7-0.9-4.2-0.2c-6.2,3.2-12.4,6.5-18.8,9.3c-3.2,1.4-2.5,2.8-0.9,4.8
	c7.8,10.5,18.5,15.8,31.1,17.8c2.4,0.4,4.9,0.5,7.1,0.7C100.2,335.1,104.8,334.5,109.3,333.4L109.3,333.4z M382,310.8
	c-0.3-1.6-1.6-2.7-3.2-2.7c-6-0.6-11.4-3.6-15-8.5c-0.7-1.2-2.3-1.7-3.6-1.2c-7.1,2.1-14.3,4.1-21.5,6c-1.9,0.5-2.1,1.3-1.4,3
	c9.6,20.6,31.1,30.6,51,26.6C386.3,326.3,384.1,318.5,382,310.8L382,310.8z M71.8,289.6c1.4-0.7,1.5-1.7,1.5-3.1
	c-0.1-5.6,1.6-11.2,5-15.7c1.4-1.5,1.5-3.8,0.4-5.5c-3.3-6.2-6.3-12.5-9.4-18.8c-0.8-1.7-1.5-2.4-3.4-1
	c-15.6,12.1-25.2,33.9-16.7,55.1C56.8,297,64.2,293.3,71.8,289.6z M431.9,281.5c-0.3-2.6-1.2-2.7-3.2-2.1c-6.9,2-13.8,3.9-20.7,5.7
	c-2,0.5-2.7,1.6-2.9,3.6c-0.7,6.1-3,11.4-8.4,14.9c-1.3,0.7-1.8,2.3-1.2,3.6c2.2,7.7,4.4,15.5,6.6,23.2
	C421.1,323.3,434.1,301.7,431.9,281.5L431.9,281.5z M379.3,88.2c5.7-0.3,10.2-5.1,10.1-10.8c0-5.6-4.4-10.2-10-10.4
	c-9.5-0.4-19-0.2-28.5-0.3c-1.9,0-2.4,0.7-1.8,2.6c1.6,5.5,3,11.1,4.4,16.7c0.5,1.8,1.6,2.4,3.4,2.4c3.6-0.1,7.2,0,10.7,0v-0.1
	C371.5,88.3,375.4,88.5,379.3,88.2z M332.4,289.6c0.3,1.6,0.9,1.9,2.5,1.5c7-2.1,14-4,21-5.9c1.5-0.4,2-1.1,1.5-2.6
	c-3-11.2-6-22.4-9-33.7C334,257.7,330,277.9,332.4,289.6z M402.1,270c0.5,1.8,1.4,2,3.1,1.5c6.6-1.9,13.2-3.7,19.8-5.5
	c1.6-0.5,3-0.9,1.8-3.1c-7.2-13.4-17.9-22.3-33.4-26.3C396.3,248.1,399.2,259,402.1,270L402.1,270z M369.3,146.1
	c0.8,2.9,1.9,5.6,2.3,8.5c0.5,4.1,2.7,4.9,6.4,4.6c6.9-0.4,11.5-4.4,11.4-10.3s-4.6-9.8-11.7-9.9h-2.8
	C367.5,139.1,367.5,139.1,369.3,146.1z M84.2,236.6c-2.6,0.6-3.8,1.5-2.1,4.4c2.3,4,4.2,8.3,6.3,12.5c0.8,1.6,1.6,2.2,2.9,0.5
	c4.4-5.8,8.9-11.5,13.9-17.9C97.4,234.9,90.8,234.9,84.2,236.6L84.2,236.6z M124.6,326.1c6.6-4.4,11.9-10.4,15.6-17.4h-24.2
	C118.9,314.6,121.7,320.2,124.6,326.1L124.6,326.1z M334.2,201.6c3-2.1-0.2-4.5-0.7-7.3l-13.9,16.2l0.5,0.5
	C324.8,207.9,329.6,204.9,334.2,201.6z"/>
<path d="M307.3,154.1c3.8,0,7.3,0.3,9,4.3c1.6,3.7-0.3,6.5-2.7,9.2c-29.6,34.7-59.2,69.4-88.8,104.1c-2.2,2.8-5.7,4.4-9.3,4.3
	c-28-0.1-56-0.1-84,0c-3.5,0-6.6-0.5-8.3-3.9s-0.2-6.2,1.9-9c27.2-34.8,54.3-69.7,81.5-104.6c2.1-2.9,5.6-4.6,9.2-4.4
	c15.3,0.1,30.5,0.1,45.8,0.1S292.1,154.2,307.3,154.1z M235.6,168.1c-1.9,0-3.3,0.1-2.9,2.7c2.8,19.7,5.6,39.3,8.5,60l53.6-62.7
	C274.2,168.2,254.9,168.2,235.6,168.1L235.6,168.1z M228.1,246.1c1.3-1.4,0.8-2.9,0.5-4.4c-3.3-23.4-6.7-46.8-10-70.2
	c-0.1-1,0.3-2.5-0.9-3c-1.6-0.6-2,1.1-2.7,2c-2.9,3.6-5.5,7.6-8.7,11c-3.7,3.9-4.4,7.9-3.5,13c3.3,21.2,6.3,42.4,9.4,63.7
	c0.2,1.2,0.1,2.5,1.4,3.7C218.5,256.7,223.3,251.4,228.1,246.1L228.1,246.1z M173.4,223.9c-1.3,1.6-0.7,2.7,0.3,4
	c7,9.3,12.2,19.9,15.3,31.1c1.3,4.8,5,2.5,7.7,2.6c2.9,0.1,1.5-2.6,1.4-3.9c-2.5-17.9-5.2-35.8-8-55.1
	C183.9,210.5,178.8,217.3,173.4,223.9L173.4,223.9z M153,250.1c-1.2,1.5-2.1,2.9-0.6,4.5c2.2,2.3,1.1,7.2,6,7.3c4.7,0,9.3,0,14,0
	c2.2,0,2.8-0.8,2-2.8c-2.6-7.8-6.5-15.1-11.3-21.8C159.5,241.9,156.3,246.1,153,250.1L153,250.1z"/>
</svg>
