<?xml version="1.0" encoding="iso-8859-1"?>
<!-- Generator: Adobe Illustrator 19.0.0, SVG Export Plug-In . SVG Version: 6.00 Build 0)  -->
<svg version="1.1" id="Capa_1" xmlns="http://www.w3.org/2000/svg" xmlns:xlink="http://www.w3.org/1999/xlink" x="0px" y="0px"
	 viewBox="0 0 512.001 512.001" style="enable-background:new 0 0 512.001 512.001;" xml:space="preserve">
<g>
	<g>
		<path d="M469.333,0H42.667C19.103,0,0,19.104,0,42.667v320c0,23.564,19.103,42.667,42.667,42.667h426.667
			c23.564,0,42.667-19.103,42.667-42.667v-320C512,19.104,492.898,0,469.333,0z M490.667,362.667
			c0,11.782-9.551,21.333-21.333,21.333H42.667c-11.782,0-21.333-9.551-21.333-21.333v-320c0-11.782,9.551-21.333,21.333-21.333
			h426.667c11.782,0,21.333,9.551,21.333,21.333V362.667z"/>
	</g>
</g>
<g>
	<g>
		<path d="M405.333,448H106.667c-17.673,0-32,14.327-32,32c0,17.673,14.327,32,32,32h298.667c17.673,0,32-14.327,32-32
			C437.334,462.327,423.006,448,405.333,448z M405.333,490.667H106.667C100.776,490.667,96,485.891,96,480
			s4.776-10.667,10.667-10.667h298.667c5.891,0,10.667,4.776,10.667,10.667C416,485.891,411.224,490.667,405.333,490.667z"/>
	</g>
</g>
<g>
	<g>
		<path d="M320,384H192c-5.891,0-10.667,4.776-10.667,10.667v64c0,5.891,4.776,10.667,10.667,10.667h128
			c5.891,0,10.667-4.776,10.667-10.667v-64C330.667,388.776,325.891,384,320,384z M309.334,448h-0.001H202.667v-42.667h106.667V448z
			"/>
	</g>
</g>
<g>
	<g>
		<rect y="320" width="512" height="21.333"/>
	</g>
</g>
<g>
	<g>
		<rect x="181.33" y="352" width="64" height="21.333"/>
	</g>
</g>
<g>
	<g>
		<rect x="266.67" y="352" width="64" height="21.333"/>
	</g>
</g>
<g>
	<g>
		<path d="M256,149.333c-17.673,0-32,14.327-32,32c0,17.673,14.327,32,32,32c17.673,0,32-14.327,32-32
			C288,163.66,273.673,149.333,256,149.333z M256,192c-5.891,0-10.667-4.776-10.667-10.667s4.776-10.667,10.667-10.667
			s10.667,4.776,10.667,10.667S261.891,192,256,192z"/>
	</g>
</g>
<g>
	<g>
		<rect x="245.33" y="106.67" width="21.333" height="53.33"/>
	</g>
</g>
<g>
	<g>
		<path d="M329.963,188.043L287.296,81.376l-19.819,7.915l40.533,101.461l-36.384,54.581h-31.253l-36.363-54.581l40.533-101.461
			l-19.819-7.915l-42.667,106.667c-1.293,3.267-0.894,6.962,1.067,9.877l42.667,64c1.979,2.966,5.309,4.747,8.875,4.747h42.667
			c3.573,0.008,6.913-1.774,8.896-4.747l42.667-64C330.857,195.004,331.256,191.31,329.963,188.043z"/>
	</g>
</g>
<g>
	<g>
		<path d="M282.101,246.453l-9.675,19.019c10.825,7.424,16.784,20.125,15.573,33.195v32h21.333v-32
			C310.708,277.545,300.209,257.414,282.101,246.453z"/>
	</g>
</g>
<g>
	<g>
		<path d="M239.573,265.472l-4.906-9.47l-4.769-9.548c-18.108,10.961-28.607,31.091-27.232,52.213v32H224v-32
			C222.79,285.597,228.748,272.896,239.573,265.472z"/>
	</g>
</g>
<g>
	<g>
		<path d="M124.875,248.459l-32-32c-4.165-4.164-10.917-4.164-15.083,0l-32,32c-4.164,4.165-4.164,10.917,0,15.083l32,32
			c2,2.001,4.713,3.125,7.541,3.125c2.829-0.001,5.541-1.125,7.541-3.125l32-32C129.039,259.376,129.039,252.624,124.875,248.459z
			 M85.333,272.917L68.416,256l16.917-16.917L102.251,256L85.333,272.917z"/>
	</g>
</g>
<g>
	<g>
		<path d="M466.208,248.459l-32-32c-4.165-4.164-10.917-4.164-15.083,0l-32,32c-4.164,4.165-4.164,10.917,0,15.083l32,32
			c2,2.001,4.713,3.125,7.541,3.125c2.829-0.001,5.541-1.125,7.541-3.125l32-32C470.372,259.376,470.372,252.624,466.208,248.459z
			 M426.667,272.917L409.749,256l16.917-16.917L443.584,256L426.667,272.917z"/>
	</g>
</g>
<g>
	<g>
		<path d="M295.541,67.125l-32-32c-4.165-4.164-10.917-4.164-15.083,0l-32,32c-4.164,4.165-4.164,10.917,0,15.083l32,32
			c2,2.001,4.713,3.125,7.541,3.125c2.829-0.001,5.541-1.125,7.541-3.125l32-32C299.705,78.043,299.705,71.292,295.541,67.125z
			 M256,91.584l-16.917-16.917L256,57.75l16.917,16.917L256,91.584z"/>
	</g>
</g>
<g>
	<g>
		<path d="M309.333,64v21.333C368.217,85.398,415.935,133.116,416,192v32h21.333v-32C437.257,121.339,379.994,64.076,309.333,64z"/>
	</g>
</g>
<g>
	<g>
		<path d="M74.667,192v32H96v-32c0.065-58.884,47.783-106.602,106.667-106.667V64C132.006,64.076,74.743,121.339,74.667,192z"/>
	</g>
</g>
<g>
	<g>
		<path d="M117.333,64C105.551,64,96,54.449,96,42.667H74.667c0,23.564,19.102,42.667,42.667,42.667h117.333V64H117.333z"/>
	</g>
</g>
<g>
	<g>
		<path d="M416,42.667L416,42.667C416,54.449,406.449,64,394.667,64H277.333v21.333h117.333c23.564,0,42.667-19.102,42.667-42.667
			H416z"/>
	</g>
</g>
<g>
	<g>
		<rect x="53.33" y="96" width="21.333" height="21.333"/>
	</g>
</g>
<g>
	<g>
		<rect x="42.667" y="138.67" width="21.333" height="21.333"/>
	</g>
</g>
<g>
	<g>
		<rect x="437.33" y="96" width="21.333" height="21.333"/>
	</g>
</g>
<g>
	<g>
		<rect x="448" y="138.67" width="21.333" height="21.333"/>
	</g>
</g>
<g>
</g>
<g>
</g>
<g>
</g>
<g>
</g>
<g>
</g>
<g>
</g>
<g>
</g>
<g>
</g>
<g>
</g>
<g>
</g>
<g>
</g>
<g>
</g>
<g>
</g>
<g>
</g>
<g>
</g>
</svg>
