<?xml version="1.0" encoding="utf-8"?>
<!-- Generator: Adobe Illustrator 22.0.1, SVG Export Plug-In . SVG Version: 6.00 Build 0)  -->
<svg version="1.1" id="Capa_1" xmlns="http://www.w3.org/2000/svg" xmlns:xlink="http://www.w3.org/1999/xlink" x="0px" y="0px"
	 viewBox="0 0 445.1 445" style="enable-background:new 0 0 445.1 445;" xml:space="preserve">
<title>giveaway</title>
<path d="M444.6,262c-2.7-16.7-12.7-27.5-28.8-31.4c-3.3-0.8-3.9-1.6-3.9-5.4c0.1-25.4,0.2-51.4,0-77.5c0-4.1,0.3-4.8,4.3-5.3
	c17.7-2.4,28.4-14.6,28.8-32.7c0.1-4.9,0.1-9.9,0-14.6c0-3.6,0-7.3,0-10.9c0-5-1.1-10-3.3-14.4c-3.6-7.5-11.7-14.1-21.7-17.6
	s-19.8-3.5-27.1,0c-4.1,2-6.2,5.5-5.9,9.7c0.4,5.2,3.7,8.6,8.6,9.1c3.1,0.3,6.3,0.3,9.3,0.4c2.2,0,4.3,0.1,6.5,0.2
	c9,0.5,12.9,4.4,13.2,13.4c0.2,5.6,0.1,11.3,0.1,16.8v4.7c0,12.7-3.6,16.4-16,16.4c-18.7,0.1-37.4,0.1-56.1,0l-23.3-0.1
	c-7.5,0-14.9,0-22.4-0.1c-18.7-0.1-38.1-0.2-57.1,0.3c-3.5,0.1-5.7-0.4-6.7-1.4s-1.4-3.3-1.2-6.9c0.6-11.1,0.6-23.1,0-36.5
	c-0.1-2.9,0.2-4.7,1-5.6s2.7-1.2,5.5-1.2c19,0.3,38.3,0.2,57,0.2c7.2,0,14.3,0,21.5,0c9.5,0,15.2,0,17.1,2s2,7.8,2.1,17.4v1.2
	c0,1,0,1.9,0,2.9c0.6,9.7,6.7,11,10.3,10.9c6.3-0.2,9.9-4.3,10-11.3c0-3.4,0-6.7,0-10c0-6-0.1-12.2,0.1-18.3c0.2-5.2-0.9-9-3.4-11.5
	s-6.3-3.7-11.6-3.6c-6.4,0.2-12.9,0.1-19.2,0c-7.9-0.1-16-0.2-24,0.2c-4.3,0.2-5.3-0.7-5.5-0.9s-0.6-1.7,0.8-5.9
	c4.3-12.6,12.4-20.2,24.7-23.2c6.5-1.6,11.5-1.3,15.2,1s6.4,6.7,8,13.5c1.7,7.1,5.6,10.2,11.5,9.4c8.9-1.2,8.5-9.6,8.4-12.4
	C370.7,15,355.2,0.3,336.9,0c-17.1-0.3-31.5,6.3-41.8,19.1c-2.3,2.8-3,2.9-3,2.9s-0.8-0.2-3.1-3C278.6,6.1,264.5-0.3,247.1,0
	c-16.6,0.4-30.6,12.3-33.9,28.6l0,0.3c-0.9,5-2.5,13.5,6.8,15.9c3,0.8,5.6,0.5,7.6-0.7c3.5-2.2,4.4-6.6,5.2-10.6
	c1.9-9,7.6-13.4,16.9-13.1c13.6,0.4,26.4,10.1,30.5,23.2c1.5,4.9,1.6,6.3,1.3,6.8s-1.8,0.8-7.1,0.8c-11.1,0-22.2,0-33.3,0
	c-21.6,0-43.2,0-64.8,0.1c-18.1,0.1-31.8,11.8-33.1,28.4c-0.6,7.2-0.5,14.4-0.4,21.5c0,2.7,0.1,5.4,0.1,8.1c0,3.7,1.1,6.8,3.1,8.7
	c1.9,1.7,4.4,2.7,7,2.6c6.1-0.1,9.8-4.4,9.9-11.5c0-2.9,0-5.7,0-8.6c0-5.2,0-10.6,0.2-15.9c0.3-8.7,4.3-12.9,12.4-13.1
	c8.1-0.2,16.4-0.2,24.4-0.1c5.9,0,11.8,0.1,17.7,0c1.7,0,2.9,0.2,3.4,0.7s0.7,1.6,0.7,3.4c-0.2,15.3-0.2,29.5,0.1,43.3
	c0,1.7-0.2,2.9-0.7,3.4s-1.6,0.7-3.4,0.7c-6.1-0.1-12.3-0.1-18.3,0c-3,0-5.9,0-8.9,0h-2.4c-4,0-7.2,1.1-9.3,3.2
	c-2.1,2.1-3.2,5.1-3.2,8.9v4.6c0,11.6,0,23.1,0,34.7c0,10.1,5.5,12.3,10.1,12.3l0,0c3.8,0,10.1-1.6,10.1-12.3c0-2.6,0-5.1,0-7.7
	c0-6.5,0.1-13.2-0.2-19.9c-0.1-2.3,0.3-3,0.6-3.3c0.2-0.3,1-0.7,3.4-0.6c13.4,0.3,27.7,0.4,42.3,0c2.3-0.1,3.8,0.2,4.5,0.8
	c0.6,0.6,0.9,2.2,0.9,4.7c-0.3,13.5-0.2,27.3-0.2,40.5c0,5.1,0,10.3,0,15.4c0,7.1,3.6,11.3,9.8,11.5c4.3,0.1,6.7-1.8,7.9-3.4
	c1.5-2.2,2.3-4.9,2.3-7.6c0.1-2.3,0.1-4.6,0.1-7c0-4.6,0-9.2,0.1-13.8c0.1-11.6,0.1-23.5-0.2-35.3c-0.1-2.6,0.3-4.2,1-4.9
	s2.4-1,5.2-0.9c9.2,0.4,18.6,0.3,27.6,0.2c3.3,0,6.5,0,9.8,0c4.3,0,8.1,0,8.9,0.8s0.8,4.6,0.8,9.3v22.9c0,15.3,0,30.5,0,45.8
	c0,10.2,5.5,12.3,10,12.3c3.7,0,10.2-1.5,10.2-12.2c0-2.3,0-4.6,0-6.9c0-6.2,0-12.3,0-18.5c0.1-15.5,0.1-31.5-0.2-47.3
	c-0.1-2.8,0.3-4.7,1.1-5.4s2.6-1.1,5.6-1c13.5,0.6,26.8,0.6,39.5,0c2.2-0.1,3.7,0.2,4.3,0.8s1,2.2,0.9,5c-0.3,30.3-0.3,55.6,0,79.5
	c0,4.4-1.3,6.5-5.8,8.8c-9.8,5.1-19.7,10.4-29.2,15.6c-5.3,2.8-10.5,5.7-15.8,8.5c-2.9,1.5-11.5,6.2-6.9,15.2
	c1.1,2.4,3.1,4.2,5.5,5.1c3.7,1.1,7.5-0.6,10.8-2.4c15.5-8.5,31-16.8,46.6-25.2c7.4-4,17.6-6.4,24.7,4.6c5.4,8.3,3,17.4-6.4,24.4
	c-25.2,18.6-50.5,37.2-75.7,55.8c-21.1,15.5-42.2,31.1-63.2,46.6c-9.4,7.2-21.2,10.2-32.9,8.5c-28-3.7-56.6-7.4-84.1-10.9l-10.9-1.4
	c-5-0.6-13.3-1.7-14.9,7.8c-0.6,3.2-0.1,5.9,1.4,7.9c2.5,3.4,7,4,11,4.5l0.7,0.1c31.1,4.1,62.3,8.1,93.4,12c3.2,0.4,6.4,0.6,9.7,0.6
	c14.7,0,27.9-4.5,40.2-13.7c44.3-33.1,89.8-66.4,133.7-98.5l3.7-2.7C441.4,288.7,447,276.6,444.6,262z"/>
<path d="M201.8,233.6c16,9.5,32.3,19,48.1,28.2c8.2,4.8,16.5,9.6,24.7,14.4c15.3,9,20.7,22.4,14.5,35.9c-6.4,13.8-20,18.6-36.5,12.8
	c-13.9-4.8-27.7-9.7-41.5-14.7l-20.4-7.3l-0.4-0.1c-4.8-1.7-12.9-4.6-16.4,4.5c-1.1,2.4-1.2,5.2-0.2,7.7c1.8,3.9,6.4,5.6,9.8,6.8
	c8.9,3.2,17.9,6.3,26.8,9.5c13.3,4.7,26.5,9.4,39.8,14.1c5.9,2.1,12.3,2.9,18.5,2.4c20.6-2,36.6-15.4,41.7-35.1
	c5.1-19.5-3.3-40.1-20.6-50.5c-24.5-15-51.7-30.8-83-48.6c-14.6-8.2-30.8-7.9-46.7,0.9c-7.8,4.3-15.6,8.8-23.4,13.2
	C125,234.2,113,241,101,247.5c-7.5,4-10.6,9.7-10.6,19c0.3,46.9,0.2,93.2,0.1,136.3c0,14.5-6.9,21.4-21.4,21.8
	c-8.6,0.2-18.8,0.4-29.2-0.1c-12-0.6-19.3-7.6-19.4-18.9c-0.4-50.9-0.4-102,0-152c0.1-11.9,7.6-19,20-19c3.4,0,6.8-0.1,10.2-0.2
	c9.7-0.3,19.7-0.6,29.3,1.6c6.2,1.4,10.8-1.2,12.4-7c1.4-5.5-1.2-9.9-7.2-12.3c-4.6-1.7-9.5-2.6-14.4-2.6c-3.5,0-7,0-10.5,0
	c-6.2,0-12.6,0-18.9,0.1c-24.9,0.4-41,16.9-41.1,41.9c-0.1,17.4,0,34.7,0,52v21.5c0,7.7,0,15.3,0,23c0,17.2-0.1,35,0.1,52.6
	c0.2,22.4,16.8,39.1,39.3,39.7c3.6,0.1,7.3,0.1,11,0.1c2.9,0,5.7,0,8.5,0h7.1c29.8,0,44.9-15.2,44.9-45v-20.7
	c0-35,0.1-71.2-0.1-106.9c0-5.5,1.6-8.1,6.3-10.7c14.9-7.9,30.5-16.7,50.5-28.4C179.2,226.5,190.1,226.6,201.8,233.6z"/>
</svg>
