<svg id="Capa_1" data-name="Capa 1" xmlns="http://www.w3.org/2000/svg" viewBox="0 0 409.18 415.89"><defs><style>.cls-1{fill:#5c3c7d;}</style></defs><title>mktdigital</title><path class="cls-1" d="M217.7,507.46q-43,0-86,0c-21.93,0-36.31-14.35-36.34-36.2,0-3.69-.09-7.39,0-11.07.14-4.55,2.66-7.07,7.19-7.23,3.4-.12,6.82-.18,10.21,0,2.5.15,3.09-.8,3.07-3.15-.11-11.08,0-22.15,0-33.23V312.66c0-7.78,2-9.72,9.87-9.72q29.6,0,59.2,0c5.69,0,9,3.72,7.75,8.5-1.07,3.92-4,5.14-7.8,5.14-16.9,0-33.79.12-50.69-.13-4-.06-4.79,1.19-4.78,4.94q.19,63.47,0,126.93c0,3.66.75,4.7,4.59,4.69q84.14-.21,168.25,0c3.87,0,4.62-1.06,4.59-4.7-.18-20.16-.06-40.32-.11-60.48,0-3.93,1-7.12,5.16-8.21,4.81-1.26,8.47,2.1,8.48,7.79,0,20,.15,40-.09,60.06-.05,4.35.95,6.11,5.48,5.51a44,44,0,0,1,8.51,0c3.75.26,6.3,2.45,6.43,6.15.23,6.51.76,13.08-.37,19.55-3,17.12-16.57,28.69-33.94,28.74C276.77,507.53,247.24,507.46,217.7,507.46Zm.43-40.9H114.19c-1.14,0-2.28,0-3.41,0s-1.71.46-1.84,1.72c-1.42,14.38,6.29,23.29,17.36,25.25,3,.54,6.22.27,9.35.28,6.84,0,6.87,0,7.4-6.8.24-3.16,1.72-5.39,4.72-6.42s5.31-.1,7.28,2.1a7.6,7.6,0,0,1,1.58,6.43c-.61,4,1.12,4.8,4.87,4.78,36.63-.13,73.27-.07,109.9-.1,2.52,0,5.54,1,7.42-.54,1.63-1.34.35-4.28.6-6.51.42-3.79,3.06-6.43,6.61-6.53a6.93,6.93,0,0,1,7,6.17c.4,2.43-1.3,5.78,1,7.1,1.93,1.11,5,.3,7.53.33h2.56c15,0,23-8.21,23.14-23.22,0-3.51-1.1-4.13-4.29-4.12C288,466.6,253.06,466.56,218.13,466.56Z" transform="translate(-95.28 -91.6)"/><path class="cls-1" d="M172.81,362.24a13,13,0,0,0,2,7.31c4.25,7.38,8.45,14.78,12.8,22.1s12.17,9.93,19.32,5.21c27.93-18.46,60-27.27,90.66-39.32,14.9-5.85,29.93-11.41,45-16.85,3.25-1.18,3.25-2.2,1.66-4.91C335,320.13,326,304.36,316.87,288.66c-1.79-3.07-2.55-6-.13-9.06,3-3.82,8.58-3.27,11.38,1.29,3.13,5.07,6,10.28,9,15.45q11.79,20.46,23.57,40.94c3.78,6.59,2.53,10-4.7,12.66q-47.76,18-95.57,35.8c-3.34,1.24-4.51,2.16-2.2,5.67,3.65,5.56,6.81,11.46,10,17.3,5.82,10.56,2.56,22.79-7.48,28.42-9.89,5.55-21.85,2.13-27.95-8.11-3.85-6.46-7.75-12.9-11.18-19.58-1.74-3.38-3.21-3.21-6-1.42-9.35,5.92-19.45,7.38-28.86,1.14-5.08-3.36-8.31-3.15-13.27-.31A20,20,0,0,1,145.89,401c-5.48-9.79-2.18-21.59,7.77-27.7a12.54,12.54,0,0,1,2.22-1.26c3.39-1.28,4.2-3.24,3.76-7.11-1.22-10.75,3.08-19.4,12.05-25.54a67.14,67.14,0,0,1,8.43-4.95c23.16-11.29,41.47-29.15,61.16-45.11,18.31-14.84,36.38-30,54.57-45,5.38-4.43,9.26-3.73,12.81,2.28,1.87,3.18,3.78,6.34,5.52,9.59,2.09,3.89,1.2,7.72-2.08,9.71s-7.08,1-9.56-2.6c-3-4.36-3-4.36-7-1q-38.94,32.11-77.93,64.16c-2.6,2.13-3.07,3.54-1.28,6.47,5.18,8.47,10.08,17.11,15,25.76,2.92,5.16.69,10.48-4.53,11.06-3.6.4-5.81-1.6-7.49-4.53-4.78-8.38-9.75-16.65-14.38-25.11-1.47-2.69-2.68-2.88-5.16-1.36-6.53,4-13.23,7.72-19.84,11.6A13.42,13.42,0,0,0,172.81,362.24Zm84.62,56.57c.08-1.16-.72-2.64-1.59-4.13q-4-6.78-7.92-13.58c-5.15-8.84-5.15-8.84-13.89-3.53l-1.46.87a1.37,1.37,0,0,0-.58,2.11c4.59,7.81,9,15.72,13.84,23.38,1.54,2.45,4.5,2.82,7.31,1.74S257.35,422.46,257.43,418.81Zm-93.14-21.09a11.64,11.64,0,0,0,7.54-4c1.52-1.77-1.42-3.82-2.28-5.79a45,45,0,0,0-2.51-4.41c-.52-.89-1-1.78-2.28-1-2.16,1.33-4.65,2.16-6.36,4.13a6.22,6.22,0,0,0-1.12,7.08C158.52,396.47,160.69,397.76,164.29,397.72Z" transform="translate(-95.28 -91.6)"/><path class="cls-1" d="M504.37,159.75q0,19.59,0,39.19c0,13.66-8.42,22.16-21.95,22.17q-39.41,0-78.81,0c-13.35,0-21.9-8.51-21.94-21.75q-.06-19,0-37.91c0-5.37,2.56-8.48,6.82-8.47s6.78,3.12,6.79,8.5c0,12.5,0,25,0,37.49,0,6.11,2.41,8.5,8.52,8.51q39.19,0,78.38,0c6.12,0,8.52-2.41,8.53-8.51q0-39.19,0-78.38c0-6.14-2.39-8.53-8.49-8.54q-39.18,0-78.38,0c-6.15,0-8.5,2.37-8.56,8.46,0,3.83.08,7.67,0,11.5-.13,4.36-2.89,7.24-6.74,7.27s-6.71-2.84-6.82-7.17c-.12-4.83-.2-9.67,0-14.48.49-10.3,9-19,19.31-19.12q42-.33,83.91,0c10.85.09,19.28,9.23,19.39,20.34C504.47,132.49,504.37,146.12,504.37,159.75Z" transform="translate(-95.28 -91.6)"/><path class="cls-1" d="M443,432.47c-13.2,0-26.41,0-39.61,0-13,0-21.67-8.61-21.69-21.58q-.06-39.83,0-79.66c0-12.75,8.67-21.43,21.38-21.45q40-.07,80.08,0c12.48,0,21.16,8.69,21.23,21.17.07,12.78,0,25.56,0,38.33,0,5.43-2.47,8.54-6.69,8.62s-6.92-3.12-6.93-8.79c0-12.21,0-24.42,0-36.64,0-6.76-2.24-9.06-8.82-9.07q-39,0-78,0c-6.35,0-8.65,2.35-8.66,8.78q0,39,0,77.95c0,6.38,2.34,8.69,8.77,8.7q39,0,77.95,0c6.38,0,8.67-2.34,8.72-8.75,0-3.84-.1-7.68,0-11.51.16-4.09,2.88-6.86,6.58-7,3.87-.12,6.85,2.73,7,7,.14,5,.24,9.95-.05,14.9a20.29,20.29,0,0,1-20.41,18.92C470.24,432.56,456.6,432.47,443,432.47Z" transform="translate(-95.28 -91.6)"/><path class="cls-1" d="M190.76,221.12q0,26.2,0,52.41c0,6.67-2.28,8.94-8.95,9H104.26c-6.68,0-8.94-2.27-8.94-9q0-52.41,0-104.81c0-6.69,2.25-8.94,9-8.94q38.76,0,77.54,0c6.68,0,8.94,2.26,8.95,8.94Q190.78,194.92,190.76,221.12ZM109,220.69c0,14.76.11,29.53-.08,44.29,0,3.27.93,4,4,3.94q30.22-.21,60.47,0c2.9,0,3.83-.64,3.82-3.71q-.18-44.07,0-88.15c0-3.05-.89-3.74-3.82-3.72q-30.23.19-60.46,0c-3.1,0-4.1.64-4,3.93C109.06,191.73,109,206.21,109,220.69Z" transform="translate(-95.28 -91.6)"/><path class="cls-1" d="M265.87,91.6a61.39,61.39,0,0,1,61.23,61.68c-.09,33.8-27.83,61.15-61.9,61-33.57-.13-61-28-60.8-61.68A61.43,61.43,0,0,1,265.87,91.6Zm47.59,61.32a47.71,47.71,0,1,0-48,47.74A47.75,47.75,0,0,0,313.46,152.92Z" transform="translate(-95.28 -91.6)"/><path class="cls-1" d="M443,398.38A27.27,27.27,0,1,1,470.28,371,27.3,27.3,0,0,1,443,398.38Zm.11-13.66a13.62,13.62,0,1,0-13.74-13.38A13.68,13.68,0,0,0,443.14,384.72Z" transform="translate(-95.28 -91.6)"/><path class="cls-1" d="M429.38,177.79c0-1,0-2,0-3-.07-2.54.7-5.6-.46-7.48s-4.46-.47-6.79-.78c-3.75-.5-6.36-3.25-6.35-6.8s2.61-6.28,6.37-6.78c2.33-.3,5.52,1.13,6.8-.79,1.14-1.7.35-4.66.46-7.06a20.42,20.42,0,0,1,19.12-19.37c4.82-.24,9.66-.15,14.48,0,4.36.1,7.23,2.9,7.24,6.76s-2.85,6.67-7.19,6.8c-4.12.13-8.24,0-12.36.06-6.12.14-10.37,7.35-7.59,12.75.51,1,1.35.83,2.16.85,1.7,0,3.42-.09,5.11.09a6.64,6.64,0,0,1,6.21,6.86c-.21,3.77-2.37,6-6,6.62-2.35.42-5.56-1-6.92.64-1.72,2.11-.49,5.44-.58,8.24-.12,3.69,0,7.39-.06,11.08-.13,4.39-2.82,7.27-6.65,7.36-4,.08-6.77-2.9-6.95-7.51,0-.14,0-.28,0-.42Z" transform="translate(-95.28 -91.6)"/><path class="cls-1" d="M375.35,296.12c-4.57,0-7.52-2.4-8-6.06s2-6.72,6-7.53q16.46-3.37,33-6.65c4.91-1,8.47,1,9.37,5,1,4.25-1.43,7.53-6.55,8.61-10.55,2.2-21.12,4.31-31.69,6.44A16.74,16.74,0,0,1,375.35,296.12Z" transform="translate(-95.28 -91.6)"/><path class="cls-1" d="M361.16,206.85a8.28,8.28,0,0,1-2,5.61c-6.37,8.49-12.71,17-19.13,25.44-3,4-6.95,4.76-10.24,2.21s-3.59-6.32-.76-10.14q9.7-13.14,19.58-26.16c2-2.6,4.56-3.83,7.81-2.75A6.49,6.49,0,0,1,361.16,206.85Z" transform="translate(-95.28 -91.6)"/><path class="cls-1" d="M388.46,241.45a7.27,7.27,0,0,1-3.13,5.9c-8.82,6.63-17.62,13.3-26.51,19.82-3.57,2.62-7.4,2.07-9.8-1s-1.83-7.15,1.89-10c8.67-6.6,17.42-13.09,26.13-19.62,2.47-1.85,5.09-2.44,7.91-.84A6.74,6.74,0,0,1,388.46,241.45Z" transform="translate(-95.28 -91.6)"/><path class="cls-1" d="M142.64,227.93c-4.26,0-8.52.09-12.78,0s-7.22-2.89-7.24-6.76,2.83-6.75,7.18-6.8q13.2-.16,26.41,0c4.36.06,7.22,2.88,7.25,6.74s-2.85,6.7-7.19,6.82C151.73,228,147.19,227.93,142.64,227.93Z" transform="translate(-95.28 -91.6)"/><path class="cls-1" d="M142.84,255.21c-4.26,0-8.52.07-12.78,0-4.59-.1-7.56-3-7.44-7,.12-3.85,3-6.54,7.41-6.58q13-.13,26,0c4.58,0,7.57,3,7.45,7-.12,3.83-3,6.49-7.42,6.59S147.24,255.21,142.84,255.21Z" transform="translate(-95.28 -91.6)"/><path class="cls-1" d="M149.81,187.08c2.41,0,4.84-.16,7.23,0a6.7,6.7,0,0,1,6.42,6.69,6.62,6.62,0,0,1-6.32,6.77c-4.82.23-9.66.23-14.48,0a6.6,6.6,0,0,1-6.4-6.69,6.67,6.67,0,0,1,6.31-6.77C145,186.91,147.39,187.08,149.81,187.08Z" transform="translate(-95.28 -91.6)"/><path class="cls-1" d="M252.32,125.73a10.7,10.7,0,0,1,4.39,1.48c12.55,6.27,25.08,12.57,37.66,18.78,3,1.48,5.38,3.36,5.38,6.95s-2.37,5.47-5.36,6.95c-12.58,6.21-25.09,12.56-37.67,18.77-6.9,3.41-11.38.57-11.41-7.17q0-18.94,0-37.89C245.35,128.71,248.21,125.61,252.32,125.73Zm25.42,27.2-18.53-9.23v18.53Z" transform="translate(-95.28 -91.6)"/></svg>