<?xml version="1.0" encoding="utf-8"?>
<!-- Generator: Adobe Illustrator 22.0.1, SVG Export Plug-In . SVG Version: 6.00 Build 0)  -->
<svg version="1.1" id="Capa_1" xmlns="http://www.w3.org/2000/svg" xmlns:xlink="http://www.w3.org/1999/xlink" x="0px" y="0px"
	 viewBox="0 0 409.2 415.9" style="enable-background:new 0 0 409.2 415.9;" xml:space="preserve">
<title>mktdigital</title>
<path d="M122.4,415.9c-28.7,0-57.3,0-86,0c-21.9,0-36.3-14.4-36.3-36.2c0-3.7-0.1-7.4,0-11.1c0.1-4.5,2.7-7.1,7.2-7.2
	c3.4-0.1,6.8-0.2,10.2,0c2.5,0.1,3.1-0.8,3.1-3.1c-0.1-11.1,0-22.1,0-33.2V221.1c0-7.8,2-9.7,9.9-9.7c19.7,0,39.5,0,59.2,0
	c5.7,0,9,3.7,7.8,8.5c-1.1,3.9-4,5.1-7.8,5.1c-16.9,0-33.8,0.1-50.7-0.1c-4-0.1-4.8,1.2-4.8,4.9c0.1,42.3,0.1,84.6,0,126.9
	c0,3.7,0.8,4.7,4.6,4.7c56.1-0.1,112.2-0.1,168.3,0c3.9,0,4.6-1.1,4.6-4.7c-0.2-20.2-0.1-40.3-0.1-60.5c0-3.9,1-7.1,5.2-8.2
	c4.8-1.3,8.5,2.1,8.5,7.8c0,20,0.1,40-0.1,60.1c0,4.4,1,6.1,5.5,5.5c2.8-0.3,5.7-0.3,8.5,0c3.8,0.3,6.3,2.5,6.4,6.1
	c0.2,6.5,0.8,13.1-0.4,19.5c-3,17.1-16.6,28.7-33.9,28.7C181.5,415.9,152,415.9,122.4,415.9z M122.8,375H18.9c-1.1,0-2.3,0-3.4,0
	s-1.7,0.5-1.8,1.7C12.2,391.1,20,400,31,401.9c3,0.5,6.2,0.3,9.4,0.3c6.8,0,6.9,0,7.4-6.8c0.2-3.2,1.7-5.4,4.7-6.4s5.3-0.1,7.3,2.1
	c1.5,1.8,2.1,4.2,1.6,6.4c-0.6,4,1.1,4.8,4.9,4.8c36.6-0.1,73.3-0.1,109.9-0.1c2.5,0,5.5,1,7.4-0.5c1.6-1.3,0.4-4.3,0.6-6.5
	c0.4-3.8,3.1-6.4,6.6-6.5c3.6-0.1,6.6,2.6,7,6.2c0.4,2.4-1.3,5.8,1,7.1c1.9,1.1,5,0.3,7.5,0.3h2.6c15,0,23-8.2,23.1-23.2
	c0-3.5-1.1-4.1-4.3-4.1C192.7,375,157.8,375,122.8,375L122.8,375z"/>
<path d="M77.5,270.6c-0.1,2.6,0.6,5.1,2,7.3c4.3,7.4,8.4,14.8,12.8,22.1s12.2,9.9,19.3,5.2c27.9-18.5,60-27.3,90.7-39.3
	c14.9-5.9,29.9-11.4,45-16.9c3.3-1.2,3.3-2.2,1.7-4.9c-9.3-15.6-18.3-31.4-27.4-47.1c-1.8-3.1-2.5-6-0.1-9.1c3-3.8,8.6-3.3,11.4,1.3
	c3.1,5.1,6,10.3,9,15.5c7.9,13.6,15.7,27.3,23.6,40.9c3.8,6.6,2.5,10-4.7,12.7c-31.8,12-63.7,23.9-95.6,35.8
	c-3.3,1.2-4.5,2.2-2.2,5.7c3.6,5.6,6.8,11.5,10,17.3c5.8,10.6,2.6,22.8-7.5,28.4c-9.9,5.5-21.9,2.1-27.9-8.1
	c-3.9-6.5-7.8-12.9-11.2-19.6c-1.7-3.4-3.2-3.2-6-1.4c-9.4,5.9-19.4,7.4-28.9,1.1c-5.1-3.4-8.3-3.1-13.3-0.3
	c-9.6,5.5-21.8,2.2-27.3-7.4c-0.1-0.2-0.2-0.3-0.3-0.5c-5.5-9.8-2.2-21.6,7.8-27.7c0.7-0.5,1.4-0.9,2.2-1.3c3.4-1.3,4.2-3.2,3.8-7.1
	c-1.2-10.8,3.1-19.4,12.1-25.5c2.7-1.9,5.5-3.5,8.4-5c23.2-11.3,41.5-29.1,61.2-45.1c18.3-14.8,36.4-30,54.6-45
	c5.4-4.4,9.3-3.7,12.8,2.3c1.9,3.2,3.8,6.3,5.5,9.6c2.1,3.9,1.2,7.7-2.1,9.7s-7.1,1-9.6-2.6c-3-4.4-3-4.4-7-1
	c-26,21.4-51.9,42.8-77.9,64.2c-2.6,2.1-3.1,3.5-1.3,6.5c5.2,8.5,10.1,17.1,15,25.8c2.9,5.2,0.7,10.5-4.5,11.1
	c-3.6,0.4-5.8-1.6-7.5-4.5c-4.8-8.4-9.8-16.6-14.4-25.1c-1.5-2.7-2.7-2.9-5.2-1.4c-6.5,4-13.2,7.7-19.8,11.6
	C80.3,261.1,77.5,265.7,77.5,270.6z M162.1,327.2c0.1-1.2-0.7-2.6-1.6-4.1c-2.7-4.5-5.3-9-7.9-13.6c-5.1-8.8-5.1-8.8-13.9-3.5
	l-1.5,0.9c-0.7,0.3-1,1.1-0.8,1.8c0,0.1,0.1,0.2,0.2,0.3c4.6,7.8,9,15.7,13.8,23.4c1.5,2.5,4.5,2.8,7.3,1.7S162.1,330.9,162.1,327.2
	z M69,306.1c2.9-0.3,5.6-1.8,7.5-4c1.5-1.8-1.4-3.8-2.3-5.8c-0.8-1.5-1.6-3-2.5-4.4c-0.5-0.9-1-1.8-2.3-1c-2.2,1.3-4.6,2.2-6.4,4.1
	c-1.8,1.9-2.3,4.7-1.1,7.1C63.2,304.9,65.4,306.2,69,306.1z"/>
<path d="M409.1,68.2c0,13.1,0,26.1,0,39.2c0,13.7-8.4,22.2-22,22.2c-26.3,0-52.5,0-78.8,0c-13.4,0-21.9-8.5-21.9-21.8
	c0-12.7,0-25.3,0-37.9c0-5.4,2.6-8.5,6.8-8.5s6.8,3.1,6.8,8.5c0,12.5,0,25,0,37.5c0,6.1,2.4,8.5,8.5,8.5c26.1,0,52.3,0,78.4,0
	c6.1,0,8.5-2.4,8.5-8.5c0-26.1,0-52.3,0-78.4c0-6.1-2.4-8.5-8.5-8.5c-26.1,0-52.2,0-78.4,0c-6.1,0-8.5,2.4-8.6,8.5
	c0,3.8,0.1,7.7,0,11.5c-0.1,4.4-2.9,7.2-6.7,7.3s-6.7-2.8-6.8-7.2c-0.1-4.8-0.2-9.7,0-14.5c0.5-10.3,9-19,19.3-19.1
	c28-0.2,56-0.2,83.9,0c10.9,0.1,19.3,9.2,19.4,20.3C409.2,40.9,409.1,54.5,409.1,68.2z"/>
<path d="M347.7,340.9c-13.2,0-26.4,0-39.6,0c-13,0-21.7-8.6-21.7-21.6c0-26.6,0-53.1,0-79.7c0-12.8,8.7-21.4,21.4-21.5
	c26.7,0,53.4,0,80.1,0c12.5,0,21.2,8.7,21.2,21.2c0.1,12.8,0,25.6,0,38.3c0,5.4-2.5,8.5-6.7,8.6s-6.9-3.1-6.9-8.8
	c0-12.2,0-24.4,0-36.6c0-6.8-2.2-9.1-8.8-9.1c-26,0-52,0-78,0c-6.4,0-8.6,2.4-8.7,8.8c0,26,0,52,0,77.9c0,6.4,2.3,8.7,8.8,8.7
	c26,0,52,0,77.9,0c6.4,0,8.7-2.3,8.7-8.8c0-3.8-0.1-7.7,0-11.5c0.2-4.1,2.9-6.9,6.6-7c3.9-0.1,6.9,2.7,7,7c0.1,5,0.2,10,0,14.9
	c-0.7,10.7-9.7,19-20.4,18.9C375,341,361.3,340.9,347.7,340.9z"/>
<path d="M95.5,129.5c0,17.5,0,34.9,0,52.4c0,6.7-2.3,8.9-8.9,9H9c-6.7,0-8.9-2.3-8.9-9C0,147,0,112.1,0,77.1c0-6.7,2.3-8.9,9-8.9
	c25.8,0,51.7,0,77.5,0c6.7,0,8.9,2.3,8.9,8.9C95.5,94.6,95.5,112.1,95.5,129.5z M13.7,129.1c0,14.8,0.1,29.5-0.1,44.3
	c0,3.3,0.9,4,4,3.9c20.1-0.1,40.3-0.1,60.5,0c2.9,0,3.8-0.6,3.8-3.7c-0.1-29.4-0.1-58.8,0-88.1c0-3.1-0.9-3.7-3.8-3.7
	c-20.2,0.1-40.3,0.1-60.5,0c-3.1,0-4.1,0.6-4,3.9C13.8,100.1,13.7,114.6,13.7,129.1z"/>
<path d="M170.6,0c33.9,0.1,61.3,27.6,61.2,61.5c0,0,0,0.1,0,0.1c-0.1,33.8-27.8,61.1-61.9,61c-33.6-0.1-61-28-60.8-61.7
	C109.4,27.2,136.8,0,170.6,0z M218.2,61.3c0-26.3-21.4-47.7-47.7-47.7S122.7,35,122.8,61.4c0,26.2,21.2,47.5,47.4,47.7
	c26.4,0.1,47.9-21.1,48-47.5C218.2,61.5,218.2,61.4,218.2,61.3z"/>
<path d="M347.7,306.8c-15.1,0-27.3-12.2-27.3-27.3c0-15.1,12.2-27.3,27.3-27.3c15,0,27.2,12.1,27.3,27.2
	C375,294.5,362.9,306.7,347.7,306.8C347.8,306.8,347.7,306.8,347.7,306.8z M347.8,293.1c7.5-0.1,13.6-6.2,13.5-13.7
	c-0.1-7.5-6.2-13.6-13.7-13.5c-7.5,0.1-13.6,6.2-13.5,13.7c0,0,0,0.1,0,0.1C334.3,287.2,340.4,293.2,347.8,293.1L347.8,293.1z"/>
<path d="M334.1,86.2c0-1,0-2,0-3c-0.1-2.5,0.7-5.6-0.5-7.5s-4.5-0.5-6.8-0.8c-3.8-0.5-6.4-3.3-6.4-6.8s2.6-6.3,6.4-6.8
	c2.3-0.3,5.5,1.1,6.8-0.8c1.1-1.7,0.4-4.7,0.5-7.1c0.5-10.4,8.7-18.7,19.1-19.4c4.8-0.2,9.7-0.2,14.5,0c4.4,0.1,7.2,2.9,7.2,6.8
	s-2.9,6.7-7.2,6.8c-4.1,0.1-8.2,0-12.4,0.1c-6.1,0.1-10.4,7.4-7.6,12.8c0.5,1,1.4,0.8,2.2,0.9c1.7,0,3.4-0.1,5.1,0.1
	c3.6,0.2,6.3,3.3,6.2,6.9c-0.2,3.8-2.4,6-6,6.6c-2.4,0.4-5.6-1-6.9,0.6c-1.7,2.1-0.5,5.4-0.6,8.2c-0.1,3.7,0,7.4-0.1,11.1
	c-0.1,4.4-2.8,7.3-6.6,7.4c-4,0.1-6.8-2.9-7-7.5c0-0.1,0-0.3,0-0.4L334.1,86.2z"/>
<path d="M280.1,204.5c-4.6,0-7.5-2.4-8-6.1s2-6.7,6-7.5c11-2.2,22-4.5,33-6.6c4.9-1,8.5,1,9.4,5c1,4.3-1.4,7.5-6.5,8.6
	c-10.5,2.2-21.1,4.3-31.7,6.4C281.5,204.4,280.8,204.5,280.1,204.5z"/>
<path d="M265.9,115.3c0.1,2.1-0.7,4.1-2,5.6c-6.4,8.5-12.7,17-19.1,25.4c-3,4-7,4.8-10.2,2.2s-3.6-6.3-0.8-10.1
	c6.5-8.8,13-17.5,19.6-26.2c2-2.6,4.6-3.8,7.8-2.8C263.8,110.2,265.7,112.5,265.9,115.3z"/>
<path d="M293.2,149.9c0,2.4-1.2,4.6-3.1,5.9c-8.8,6.6-17.6,13.3-26.5,19.8c-3.6,2.6-7.4,2.1-9.8-1s-1.8-7.1,1.9-10
	c8.7-6.6,17.4-13.1,26.1-19.6c2.5-1.9,5.1-2.4,7.9-0.8C291.8,145.3,293.1,147.4,293.2,149.9z"/>
<path d="M47.4,136.3c-4.3,0-8.5,0.1-12.8,0s-7.2-2.9-7.2-6.8c0-3.9,2.8-6.8,7.2-6.8c8.8-0.1,17.6-0.1,26.4,0
	c4.4,0.1,7.2,2.9,7.3,6.7c0,3.9-2.9,6.7-7.2,6.8C56.4,136.4,51.9,136.3,47.4,136.3z"/>
<path d="M47.6,163.6c-4.3,0-8.5,0.1-12.8,0c-4.6-0.1-7.6-3-7.4-7c0.1-3.9,3-6.5,7.4-6.6c8.7-0.1,17.3-0.1,26,0c4.6,0,7.6,3,7.4,7
	c-0.1,3.8-3,6.5-7.4,6.6C56.4,163.7,52,163.6,47.6,163.6z"/>
<path d="M54.5,95.5c2.4,0,4.8-0.2,7.2,0c3.6,0.2,6.4,3.1,6.4,6.7c0.1,3.6-2.7,6.6-6.3,6.8c-4.8,0.2-9.7,0.2-14.5,0
	c-3.6-0.1-6.5-3.1-6.4-6.7c-0.1-3.6,2.7-6.6,6.3-6.8C49.7,95.3,52.1,95.5,54.5,95.5z"/>
<path d="M157,34.1c1.6,0.2,3.1,0.7,4.4,1.5c12.5,6.3,25.1,12.6,37.7,18.8c3,1.5,5.4,3.4,5.4,6.9s-2.4,5.5-5.4,6.9
	c-12.6,6.2-25.1,12.6-37.7,18.8c-6.9,3.4-11.4,0.6-11.4-7.2c0-12.6,0-25.3,0-37.9C150.1,37.1,152.9,34,157,34.1z M182.5,61.3
	l-18.5-9.2v18.5L182.5,61.3z"/>
</svg>
