<svg id="Capa_1" data-name="Capa 1" xmlns="http://www.w3.org/2000/svg" viewBox="0 0 438.15 418.24"><defs><style>.cls-1{fill:#5c3c7d;}</style></defs><title>online</title><path class="cls-1" d="M537.52,291.63V418.29c-3.69,4.89-8.13,5.7-11.26,2.09-1.65-1.9-1.58-4.17-1.58-6.46q0-57.32,0-114.62c0-12.5-6.12-18.63-18.62-18.63H409.83c-13.15,0-19,5.86-19,19.06q0,43.62,0,87.25,0,46,0,91.95c0,11.34,6.19,17.49,17.45,17.5q49.39,0,98.79,0c11.45,0,17.59-6.27,17.61-17.8,0-10,.05-20,0-29.94,0-3.62.31-6.91,4.27-8.42s6.37,1,8.59,3.69V485c-7.22,19.46-14.14,24.25-35,24.25-30.94,0-61.89-.07-92.83.05-7.34,0-14.19-1.12-20.14-5.68-1.21-.93-2.09-1.13-3.27.08-4.53,4.63-10.23,5.61-16.46,5.6q-72.09-.13-144.18-.05c-1.42,0-2.85,0-4.27-.08A18.86,18.86,0,0,1,218,472.09c4.37-1.15,8.8-.6,13.2-.63a11.25,11.25,0,0,0,6-1.8c6.08-3.61,8.77-9,9.4-15.85.59-6.25,1.13-12.51,2.22-18.68.69-3.9,0-5.05-4.2-5-37.37.17-74.73.07-112.09.12-8.95,0-16.78-2.65-23.41-8.75-5.24-4.82-7.7-11.14-9.67-17.73V313.88c2.34-2.67,5-4.86,8.79-3.33s4.09,5,4.08,8.57c-.07,14.68,0,29.37-.08,44.06,0,2.74.35,4,3.6,4q129.2-.14,258.38,0c2.94,0,4.25-.77,3.85-3.81a24.83,24.83,0,0,1,0-3c-.06-6.39.43-5.41-5.53-5.41q-116.79,0-233.57,0c-11,0-14.46-3.51-14.46-14.65v-210c0-10.66,3.47-14.19,14-14.19h318.7c10.73,0,14,3.27,14,14.07V259.31c0,8.64,0,8.47,8.47,8.6,3.31,0,4-1,4-4.14-.09-46.63,0-93.26-.08-139.89,0-12.42-7.58-19.88-20-19.93-11,0-22,0-32.94,0-5.8,0-8.65-2.28-8.58-6.62s2.7-6.19,8.42-6.2c11.27,0,22.53,0,33.8,0a35.51,35.51,0,0,1,7.64.7c15,3.41,24.53,15.87,24.54,32.24q.08,67.59,0,135.18c0,8.57,0,8.57,8.35,8.57,1.57,0,3.14,0,4.71,0a28.84,28.84,0,0,1,27.23,21.47C536.81,290.14,536.72,291.07,537.52,291.63ZM298.08,177.45q-78.06,0-156.13-.08c-3.72,0-4.8.92-4.79,4.74q.19,77.85,0,155.71c0,3.22.65,4.36,4.18,4.36q116.36-.17,232.7,0c3.38,0,4-1.14,4-4.15-.14-13.26-.13-26.52,0-39.78.13-18.48,12.17-30.36,30.7-30.4,15.11,0,30.23-.12,45.34.07,3.41,0,4.27-1,4.25-4.3-.12-27-.17-53.9,0-80.85,0-4.3-1-5.43-5.38-5.42C401.32,177.5,349.7,177.45,298.08,177.45ZM245,379.93c-42.49,0-85,.06-127.47-.09-4.06,0-6,.62-5.45,5.24.46,3.79.09,7.69.09,11.54,0,13.27,7.39,20.73,20.57,20.74q28.66,0,57.32,0,91.54,0,183.08.1c4.06,0,5-1.23,4.87-5-.25-9.12-.29-18.26,0-27.37.14-4.05-.89-5.27-5.12-5.25C330.31,380,287.68,379.93,245,379.93Zm52.88-251H243.6c-33.78,0-67.57.08-101.36-.11-4.24,0-5.24,1.22-5.09,5.26.32,8.54.3,17.11,0,25.65-.13,3.91,1,5,5,5,33.21-.16,66.43-.09,99.64-.09q105.86,0,211.7.07c3.61,0,5-.7,4.86-4.65-.31-8.69-.33-17.4,0-26.08.15-4.14-1-5.18-5.16-5.16Q375.55,129,297.92,128.89ZM254.1,471.23h87.26a40.24,40.24,0,0,1-4.77-13.84c-.94-7.78-2-15.54-2.63-23.34-.26-3.23-1.42-3.94-4.45-3.92-19.52.13-39,.07-58.55.07-9,0-8.72,0-9.94,9.15C259.6,450,260.22,461.06,254.1,471.23Zm43.58,25.21H369.5a29.25,29.25,0,0,0,4.69-.22,5.58,5.58,0,0,0,4.76-5.31,5.74,5.74,0,0,0-3.36-5.93,9.41,9.41,0,0,0-4.59-.74H224.37a8.79,8.79,0,0,0-4.17.66c-2.57,1.3-3.9,3.37-3.52,6.23a5.5,5.5,0,0,0,4.92,5.13,31.89,31.89,0,0,0,4.69.18ZM378,451.22c0-5.84-.08-11.68,0-17.52.05-2.37-.36-3.62-3.21-3.56-8.4.17-16.81.14-25.21,0-2.47,0-3.23.73-2.91,3.18,1,7.9,1.66,15.86,2.91,23.72,1.42,8.87,8.31,14.34,17.24,14.37a57.66,57.66,0,0,1,8.53.25c2.39.36,2.64-.65,2.63-2.5C377.94,463.19,378,457.2,378,451.22Z" transform="translate(-99.37 -91.09)"/><path class="cls-1" d="M99.37,117.06c1.23-1.19,1-2.9,1.51-4.35a31.11,31.11,0,0,1,28-21.52c1.71-.09,3.42-.08,5.13-.08h260c1,0,2,0,3,0,4.66.13,7.55,2.56,7.54,6.34s-2.91,6.25-7.55,6.47c-1.42.07-2.85,0-4.27,0h-260c-10.92,0-18.16,5.26-20.13,14.72a31.4,31.4,0,0,0-.4,6.37q0,79.33,0,158.68c0,2.42.18,4.85-1.6,6.88-2.9,3.32-6.89,2.79-11.24-1.52Z" transform="translate(-99.37 -91.09)"/><path class="cls-1" d="M515.55,388.88q0,43.2,0,86.41c0,9.43-2.81,12.2-12.27,12.2H411.74c-8.69,0-11.92-3.19-11.92-11.78q0-87,0-174.09c0-8.83,2.95-11.75,11.84-11.76,5,0,10,0,15,0,7.49.05,11,3.47,11.26,10.89s.26,7.36,7.49,7.36c9.84,0,19.68-.09,29.52.05,2.72,0,3.94-.63,3.61-3.54a30.27,30.27,0,0,1,0-5.55c.39-5.32,4.09-9,9.44-9.15q9.4-.24,18.81,0c5.09.14,8.45,3.53,8.67,8.71.21,5,.1,10,.1,15Zm-102.9-.55c0,27.37.05,54.73-.07,82.1,0,3.32.8,4.33,4.23,4.31q40.41-.23,80.82,0c4.14,0,5.19-1.05,5.18-5.17q-.21-81,0-162.07c0-3.89-1-5.13-4.92-4.92-6.28.34-6.29.08-6.58,6.08-.33,7-5.29,12.11-12.33,12.19q-20.73.24-41.47,0c-6.84-.09-11.73-5-12.36-11.8-.59-6.36-.59-6.36-6.82-6.36a7.8,7.8,0,0,1-1.28,0c-3.54-.6-4.49.84-4.47,4.4C412.72,334.16,412.65,361.25,412.65,388.33Z" transform="translate(-99.37 -91.09)"/><path class="cls-1" d="M458,301.67a31,31,0,0,1-5.94-.07c-3.46-.7-5.52-3-5.24-6.66s2.43-5.7,6.06-5.88c3.26-.17,6.53-.13,9.79,0,3.88.12,6.31,2.41,6.51,5.88.21,3.68-2.15,6.42-6.08,6.83a48.17,48.17,0,0,1-5.1,0Z" transform="translate(-99.37 -91.09)"/><path class="cls-1" d="M302.53,287.29c-12.12,0-24.23,0-36.35.06-1.09,0-3.56-1-3,1.37.5,2.17-.39,5.43,3,6.26a13,13,0,0,0,3,0q31.63,0,63.29,0c7.16,0,12.7,3.12,16,9.56,3.08,6.09,2.57,12.18-1.29,17.81A17.34,17.34,0,0,1,327.81,329a16.74,16.74,0,0,1-12-16.8c.21-3.66-.73-4.55-4.28-4.4-7,.29-14,.24-20.95,0-3.13-.1-4.06.6-3.87,3.95a16.88,16.88,0,0,1-12,17.24A17.36,17.36,0,0,1,255,321.72a16.53,16.53,0,0,1-1.47-15.55c.8-2.06.51-3.51-.27-5.52-3.19-8.25-4.56-17-6.62-25.58q-8.19-34-16.06-68.16c-.65-2.8-1.7-3.79-4.51-3.63-3.55.22-7.12.14-10.68,0-4.35-.14-7.13-2.65-7.22-6.31s2.81-6.41,7.39-6.47c6-.09,12,.07,18-.06,4.45-.09,6.91,2,7.85,6.22,1.06,4.72,2.47,9.38,3.21,14.15.52,3.31,2,4,5.09,4,32.36-.1,64.71-.06,97.07-.06,1.43,0,2.86-.06,4.28.06,6.77.57,10.45,5.55,8.85,12.17q-6.52,27-13.2,53.9c-1.18,4.8-3.17,6.36-8.17,6.37C326.48,287.32,314.5,287.29,302.53,287.29Zm-4.72-59.68c-15.11,0-30.22.08-45.33-.06-3.24,0-3.85.95-3.11,3.95q4.81,19.71,9.31,39.48c.61,2.67,1.72,3.56,4.56,3.55q34-.21,68,0c3.12,0,4.09-1.07,4.75-3.9q4.59-19.53,9.62-38.95c.83-3.25.12-4.18-3.31-4.14C327.46,227.71,312.63,227.61,297.81,227.61Zm-28.13,80.26c-2.66.28-4.36,1.55-4.48,4.26-.13,2.91,1.48,4.62,4.32,4.67a4,4,0,0,0,4.44-4.15C274.08,309.74,272.36,308.3,269.68,307.87Zm58.88,4.39c.13,2.85,1.62,4.46,4.23,4.53,2.8.08,4.57-1.48,4.56-4.42a4,4,0,0,0-4.18-4.4C330.31,307.87,328.79,309.56,328.56,312.26Z" transform="translate(-99.37 -91.09)"/><path class="cls-1" d="M304.08,399a6.41,6.41,0,0,1-6.2,6.29,6.57,6.57,0,0,1-6.47-6.53,6.34,6.34,0,0,1,6.71-6.2A6.19,6.19,0,0,1,304.08,399Z" transform="translate(-99.37 -91.09)"/><path class="cls-1" d="M335.27,153.92H245.9a26.38,26.38,0,0,1-4.27-.11,5.91,5.91,0,0,1-5.31-5.33c-.44-3.2,1-5.49,3.93-6.82a10.92,10.92,0,0,1,4.63-.57h181.3a11,11,0,0,1,5,.67,6,6,0,0,1,3.7,6.57,5.87,5.87,0,0,1-5.15,5.46,23.32,23.32,0,0,1-4.27.13Q380.39,153.94,335.27,153.92Z" transform="translate(-99.37 -91.09)"/><path class="cls-1" d="M171.24,147.49a6.39,6.39,0,0,1-12.78.13,6.39,6.39,0,1,1,12.78-.13Z" transform="translate(-99.37 -91.09)"/><path class="cls-1" d="M189,153.89a6.36,6.36,0,0,1-6.26-6.24,6.58,6.58,0,0,1,6.52-6.49,6.36,6.36,0,0,1,6.15,6.74A6.21,6.21,0,0,1,189,153.89Z" transform="translate(-99.37 -91.09)"/><path class="cls-1" d="M219.77,147.5a6.44,6.44,0,0,1-6.57,6.39,6.18,6.18,0,0,1-6.14-6.27,6.41,6.41,0,0,1,6.45-6.47A6.65,6.65,0,0,1,219.77,147.5Z" transform="translate(-99.37 -91.09)"/><path class="cls-1" d="M458.45,395.88c7.69,0,15.38-.05,23.07,0,4.81,0,7.4,2.38,7.38,6.38s-2.74,6.38-7.46,6.4q-22.86.09-45.73,0c-4.85,0-7.82-2.74-7.66-6.69.15-3.76,3-6.07,7.75-6.1C443.35,395.84,450.9,395.88,458.45,395.88Z" transform="translate(-99.37 -91.09)"/><path class="cls-1" d="M458.35,366.88c7.7,0,15.39,0,23.09,0,4.78,0,7.44,2.34,7.46,6.31s-2.71,6.46-7.37,6.48q-23.08.1-46.16,0c-4.55,0-7.42-2.77-7.33-6.6.1-3.65,2.9-6.14,7.23-6.18C443,366.83,450.66,366.88,458.35,366.88Z" transform="translate(-99.37 -91.09)"/><path class="cls-1" d="M458.8,337.85c7.55,0,15.1,0,22.65,0,4.72,0,7.44,2.43,7.45,6.35s-2.73,6.43-7.39,6.45q-23.08.07-46.17,0c-4.52,0-7.41-2.77-7.3-6.59.11-3.66,2.91-6.15,7.25-6.19C443.12,337.8,451,337.85,458.8,337.85Z" transform="translate(-99.37 -91.09)"/><path class="cls-1" d="M458.31,437.75c-7.26,0-14.53,0-21.79,0-5.38,0-8.39-2.35-8.48-6.37s2.93-6.43,8.24-6.44q22.22,0,44.44,0c5.5,0,8.23,2.19,8.17,6.42s-2.86,6.35-8.36,6.39C473.12,437.79,465.72,437.75,458.31,437.75Z" transform="translate(-99.37 -91.09)"/><path class="cls-1" d="M458.43,450a6.43,6.43,0,0,1,6.41,6.11,6.32,6.32,0,0,1-6.24,6.65,6.46,6.46,0,0,1-6.49-6A6.62,6.62,0,0,1,458.43,450Z" transform="translate(-99.37 -91.09)"/></svg>