<?xml version="1.0" encoding="utf-8"?>
<!-- Generator: Adobe Illustrator 22.0.1, SVG Export Plug-In . SVG Version: 6.00 Build 0)  -->
<svg version="1.1" id="Capa_1" xmlns="http://www.w3.org/2000/svg" xmlns:xlink="http://www.w3.org/1999/xlink" x="0px" y="0px"
	 viewBox="0 0 438.1 418.2" style="enable-background:new 0 0 438.1 418.2;" xml:space="preserve">
<title>online</title>
<path d="M438.2,200.5v126.7c-3.7,4.9-8.1,5.7-11.3,2.1c-1.7-1.9-1.6-4.2-1.6-6.5c0-38.2,0-76.4,0-114.6c0-12.5-6.1-18.6-18.6-18.6
	h-96.2c-13.1,0-19,5.9-19,19.1c0,29.1,0,58.2,0,87.3c0,30.7,0,61.3,0,91.9c0,11.3,6.2,17.5,17.5,17.5c32.9,0,65.9,0,98.8,0
	c11.5,0,17.6-6.3,17.6-17.8c0-10,0-20,0-29.9c0-3.6,0.3-6.9,4.3-8.4s6.4,1,8.6,3.7v41c-7.2,19.5-14.1,24.3-35,24.3
	c-30.9,0-61.9-0.1-92.8,0c-7.3,0-14.2-1.1-20.1-5.7c-1.2-0.9-2.1-1.1-3.3,0.1c-4.5,4.6-10.2,5.6-16.5,5.6
	c-48.1-0.1-96.1-0.1-144.2,0c-1.4,0-2.9,0-4.3-0.1c-10.4-0.7-18.2-9.7-17.5-20.1c0.6-8.1,6.3-14.9,14.1-17c4.4-1.1,8.8-0.6,13.2-0.6
	c2.1,0,4.2-0.6,6-1.8c6.1-3.6,8.8-9,9.4-15.9c0.6-6.3,1.1-12.5,2.2-18.7c0.7-3.9,0-5-4.2-5c-37.4,0.2-74.7,0.1-112.1,0.1
	c-8.9,0-16.8-2.6-23.4-8.8c-5.2-4.8-7.7-11.1-9.7-17.7v-89.9c2.3-2.7,5-4.9,8.8-3.3s4.1,5,4.1,8.6c-0.1,14.7,0,29.4-0.1,44.1
	c0,2.7,0.3,4,3.6,4c86.1-0.1,172.3-0.1,258.4,0c2.9,0,4.3-0.8,3.9-3.8c-0.1-1-0.1-2,0-3c-0.1-6.4,0.4-5.4-5.5-5.4
	c-77.9,0-155.7,0-233.6,0c-11,0-14.5-3.5-14.5-14.6v-210c0-10.7,3.5-14.2,14-14.2h318.7c10.7,0,14,3.3,14,14.1v129.1
	c0,8.6,0,8.5,8.5,8.6c3.3,0,4-1,4-4.1c-0.1-46.6,0-93.3-0.1-139.9c0-12.4-7.6-19.9-20-19.9c-11,0-22,0-32.9,0
	c-5.8,0-8.6-2.3-8.6-6.6s2.7-6.2,8.4-6.2c11.3,0,22.5,0,33.8,0c2.6,0,5.1,0.2,7.6,0.7c15,3.4,24.5,15.9,24.5,32.2
	c0.1,45.1,0.1,90.1,0,135.2c0,8.6,0,8.6,8.4,8.6c1.6,0,3.1,0,4.7,0c12.8,0.3,23.9,9,27.2,21.5C437.4,199.1,437.3,200,438.2,200.5z
	 M198.7,86.4c-52,0-104.1,0-156.1-0.1c-3.7,0-4.8,0.9-4.8,4.7c0.1,51.9,0.1,103.8,0,155.7c0,3.2,0.6,4.4,4.2,4.4
	c77.6-0.1,155.1-0.1,232.7,0c3.4,0,4-1.1,4-4.1c-0.1-13.3-0.1-26.5,0-39.8c0.1-18.5,12.2-30.4,30.7-30.4c15.1,0,30.2-0.1,45.3,0.1
	c3.4,0,4.3-1,4.3-4.3c-0.1-27-0.2-53.9,0-80.9c0-4.3-1-5.4-5.4-5.4C302,86.4,250.3,86.4,198.7,86.4z M145.6,288.8
	c-42.5,0-85,0.1-127.5-0.1c-4.1,0-6,0.6-5.4,5.2c0.5,3.8,0.1,7.7,0.1,11.5c0,13.3,7.4,20.7,20.6,20.7c19.1,0,38.2,0,57.3,0
	c61,0,122.1,0,183.1,0.1c4.1,0,5-1.2,4.9-5c-0.3-9.1-0.3-18.3,0-27.4c0.1-4-0.9-5.3-5.1-5.3C230.9,288.9,188.3,288.8,145.6,288.8z
	 M198.5,37.8h-54.3c-33.8,0-67.6,0.1-101.4-0.1c-4.2,0-5.2,1.2-5.1,5.3c0.3,8.5,0.3,17.1,0,25.6c-0.1,3.9,1,5,5,5
	c33.2-0.2,66.4-0.1,99.6-0.1c70.6,0,141.1,0,211.7,0.1c3.6,0,5-0.7,4.9-4.6c-0.3-8.7-0.3-17.4,0-26.1c0.1-4.1-1-5.2-5.2-5.2
	C302.1,37.9,250.3,37.9,198.5,37.8L198.5,37.8z M154.7,380.1H242c-2.4-4.3-4-9-4.8-13.8c-0.9-7.8-2-15.5-2.6-23.3
	c-0.3-3.2-1.4-3.9-4.5-3.9c-19.5,0.1-39,0.1-58.5,0.1c-9,0-8.7,0-9.9,9.1C160.2,358.9,160.9,370,154.7,380.1z M198.3,405.4h71.8
	c1.6,0.1,3.1,0,4.7-0.2c2.7-0.4,4.7-2.6,4.8-5.3c0.3-2.5-1.1-4.9-3.4-5.9c-1.4-0.6-3-0.9-4.6-0.7H125c-1.4-0.1-2.9,0.1-4.2,0.7
	c-2.6,1.3-3.9,3.4-3.5,6.2c0.2,2.7,2.2,4.9,4.9,5.1c1.6,0.2,3.1,0.2,4.7,0.2L198.3,405.4z M278.6,360.1c0-5.8-0.1-11.7,0-17.5
	c0-2.4-0.4-3.6-3.2-3.6c-8.4,0.2-16.8,0.1-25.2,0c-2.5,0-3.2,0.7-2.9,3.2c1,7.9,1.7,15.9,2.9,23.7c1.4,8.9,8.3,14.3,17.2,14.4
	c2.8-0.1,5.7,0,8.5,0.3c2.4,0.4,2.6-0.6,2.6-2.5C278.6,372.1,278.6,366.1,278.6,360.1z"/>
<path d="M0,26c1.2-1.2,1-2.9,1.5-4.3c4-12.3,15.1-20.9,28-21.5C31.2,0,32.9,0,34.6,0h260c1,0,2,0,3,0c4.7,0.1,7.5,2.6,7.5,6.3
	s-2.9,6.3-7.5,6.5c-1.4,0.1-2.9,0-4.3,0h-260c-10.9,0-18.2,5.3-20.1,14.7c-0.3,2.1-0.5,4.2-0.4,6.4c0,52.9,0,105.8,0,158.7
	c0,2.4,0.2,4.9-1.6,6.9c-2.9,3.3-6.9,2.8-11.2-1.5L0,26z"/>
<path d="M416.2,297.8c0,28.8,0,57.6,0,86.4c0,9.4-2.8,12.2-12.3,12.2h-91.5c-8.7,0-11.9-3.2-11.9-11.8c0-58,0-116,0-174.1
	c0-8.8,3-11.8,11.8-11.8c5,0,10,0,15,0c7.5,0,11,3.5,11.3,10.9s0.3,7.4,7.5,7.4c9.8,0,19.7-0.1,29.5,0c2.7,0,3.9-0.6,3.6-3.5
	c-0.2-1.8-0.2-3.7,0-5.5c0.4-5.3,4.1-9,9.4-9.1c6.3-0.2,12.5-0.2,18.8,0c5.1,0.1,8.4,3.5,8.7,8.7c0.2,5,0.1,10,0.1,15L416.2,297.8z
	 M313.3,297.2c0,27.4,0,54.7-0.1,82.1c0,3.3,0.8,4.3,4.2,4.3c26.9-0.2,53.9-0.2,80.8,0c4.1,0,5.2-1,5.2-5.2c-0.1-54-0.1-108,0-162.1
	c0-3.9-1-5.1-4.9-4.9c-6.3,0.3-6.3,0.1-6.6,6.1c-0.3,7-5.3,12.1-12.3,12.2c-13.8,0.2-27.6,0.2-41.5,0c-6.8-0.1-11.7-5-12.4-11.8
	c-0.6-6.4-0.6-6.4-6.8-6.4c-0.4,0-0.9,0-1.3,0c-3.5-0.6-4.5,0.8-4.5,4.4C313.4,243.1,313.3,270.2,313.3,297.2L313.3,297.2z"/>
<path d="M358.6,210.6c-2,0.2-4,0.1-5.9-0.1c-3.5-0.7-5.5-3-5.2-6.7s2.4-5.7,6.1-5.9c3.3-0.2,6.5-0.1,9.8,0c3.9,0.1,6.3,2.4,6.5,5.9
	c0.2,3.7-2.1,6.4-6.1,6.8C362,210.8,360.3,210.8,358.6,210.6L358.6,210.6z"/>
<path d="M203.2,196.2c-12.1,0-24.2,0-36.4,0.1c-1.1,0-3.6-1-3,1.4c0.5,2.2-0.4,5.4,3,6.3c1,0.1,2,0.1,3,0c21.1,0,42.2,0,63.3,0
	c7.2,0,12.7,3.1,16,9.6c3.1,6.1,2.6,12.2-1.3,17.8c-4.3,6.2-12.2,8.9-19.4,6.6c-7.4-2.2-12.3-9.1-12-16.8c0.2-3.7-0.7-4.5-4.3-4.4
	c-7,0.3-14,0.2-21,0c-3.1-0.1-4.1,0.6-3.9,4c0.5,7.8-4.5,15-12,17.2c-7.5,2.3-15.5-0.7-19.7-7.3c-3.1-4.6-3.6-10.4-1.5-15.5
	c0.8-2.1,0.5-3.5-0.3-5.5c-3.2-8.3-4.6-17-6.6-25.6c-5.5-22.7-10.8-45.4-16.1-68.2c-0.6-2.8-1.7-3.8-4.5-3.6
	c-3.6,0.2-7.1,0.1-10.7,0c-4.4-0.1-7.1-2.6-7.2-6.3s2.8-6.4,7.4-6.5c6-0.1,12,0.1,18-0.1c4.5-0.1,6.9,2,7.9,6.2
	c1.1,4.7,2.5,9.4,3.2,14.1c0.5,3.3,2,4,5.1,4c32.4-0.1,64.7-0.1,97.1-0.1c1.4,0,2.9-0.1,4.3,0.1c6.8,0.6,10.5,5.6,8.9,12.2
	c-4.3,18-8.7,36-13.2,53.9c-1.2,4.8-3.2,6.4-8.2,6.4C227.1,196.2,215.1,196.2,203.2,196.2z M198.4,136.5c-15.1,0-30.2,0.1-45.3-0.1
	c-3.2,0-3.9,0.9-3.1,3.9c3.2,13.1,6.3,26.3,9.3,39.5c0.6,2.7,1.7,3.6,4.6,3.5c22.7-0.1,45.3-0.1,68,0c3.1,0,4.1-1.1,4.8-3.9
	c3.1-13,6.3-26,9.6-38.9c0.8-3.3,0.1-4.2-3.3-4.1C228.1,136.6,213.3,136.5,198.4,136.5L198.4,136.5z M170.3,216.8
	c-2.7,0.3-4.4,1.5-4.5,4.3c-0.1,2.9,1.5,4.6,4.3,4.7c2.2,0.2,4.2-1.3,4.4-3.5c0-0.2,0-0.4,0-0.6C174.7,218.6,173,217.2,170.3,216.8
	L170.3,216.8z M229.2,221.2c0.1,2.9,1.6,4.5,4.2,4.5c2.8,0.1,4.6-1.5,4.6-4.4c0.2-2.2-1.4-4.2-3.6-4.4c-0.2,0-0.4,0-0.6,0
	C230.9,216.8,229.4,218.5,229.2,221.2L229.2,221.2z"/>
<path d="M204.7,307.9c-0.1,3.4-2.8,6.2-6.2,6.3c-3.6-0.1-6.4-3-6.5-6.5c0.1-3.5,3-6.3,6.5-6.2c0.1,0,0.2,0,0.2,0
	C202.2,301.6,204.8,304.5,204.7,307.9C204.7,307.9,204.7,307.9,204.7,307.9z"/>
<path d="M235.9,62.8h-89.4c-1.4,0.1-2.9,0-4.3-0.1c-2.8-0.3-5-2.5-5.3-5.3c-0.4-3.2,1-5.5,3.9-6.8c1.5-0.5,3.1-0.7,4.6-0.6h181.3
	c1.7-0.2,3.4,0.1,5,0.7c2.6,1,4.2,3.8,3.7,6.6c-0.2,2.8-2.3,5.1-5.1,5.5c-1.4,0.2-2.8,0.2-4.3,0.1C296,62.8,266,62.8,235.9,62.8z"/>
<path d="M71.9,56.4c0,3.5-2.8,6.4-6.3,6.5s-6.4-2.8-6.5-6.3s2.8-6.4,6.3-6.5S71.8,52.9,71.9,56.4z"/>
<path d="M89.6,62.8c-3.4-0.1-6.2-2.8-6.3-6.2c0-3.6,2.9-6.5,6.5-6.5c3.5,0.1,6.3,3,6.2,6.6c0,0.1,0,0.1,0,0.2
	C95.9,60.2,93.1,62.9,89.6,62.8z"/>
<path d="M120.4,56.4c0,3.6-2.9,6.4-6.5,6.4c0,0-0.1,0-0.1,0c-3.4,0-6.2-2.8-6.1-6.2c0,0,0,0,0-0.1c0-3.5,2.8-6.4,6.3-6.5
	c0,0,0.1,0,0.1,0C117.5,50.3,120.3,53,120.4,56.4z"/>
<path d="M359.1,304.8c7.7,0,15.4,0,23.1,0c4.8,0,7.4,2.4,7.4,6.4s-2.7,6.4-7.5,6.4c-15.2,0.1-30.5,0.1-45.7,0
	c-4.9,0-7.8-2.7-7.7-6.7c0.1-3.8,3-6.1,7.8-6.1C344,304.8,351.5,304.8,359.1,304.8z"/>
<path d="M359,275.8c7.7,0,15.4,0,23.1,0c4.8,0,7.4,2.3,7.5,6.3s-2.7,6.5-7.4,6.5c-15.4,0.1-30.8,0.1-46.2,0c-4.5,0-7.4-2.8-7.3-6.6
	c0.1-3.6,2.9-6.1,7.2-6.2C343.6,275.7,351.3,275.8,359,275.8z"/>
<path d="M359.4,246.8c7.5,0,15.1,0,22.6,0c4.7,0,7.4,2.4,7.5,6.4s-2.7,6.4-7.4,6.5c-15.4,0-30.8,0-46.2,0c-4.5,0-7.4-2.8-7.3-6.6
	c0.1-3.7,2.9-6.1,7.3-6.2C343.8,246.7,351.6,246.8,359.4,246.8z"/>
<path d="M358.9,346.7c-7.3,0-14.5,0-21.8,0c-5.4,0-8.4-2.4-8.5-6.4s2.9-6.4,8.2-6.4c14.8,0,29.6,0,44.4,0c5.5,0,8.2,2.2,8.2,6.4
	s-2.9,6.4-8.4,6.4C373.8,346.7,366.4,346.7,358.9,346.7z"/>
<path d="M359.1,358.9c3.4,0,6.2,2.7,6.4,6.1c0.2,3.5-2.5,6.5-6,6.6c-0.1,0-0.2,0-0.3,0c-3.4,0-6.2-2.6-6.5-6
	C352.7,362.1,355.5,359.1,359.1,358.9z"/>
</svg>
