<?xml version="1.0" encoding="utf-8"?>
<!-- Generator: Adobe Illustrator 22.0.1, SVG Export Plug-In . SVG Version: 6.00 Build 0)  -->
<svg version="1.1" id="Capa_1" xmlns="http://www.w3.org/2000/svg" xmlns:xlink="http://www.w3.org/1999/xlink" x="0px" y="0px"
	 viewBox="0 0 517.7 405.8" style="enable-background:new 0 0 517.7 405.8;" xml:space="preserve">
<title>wip</title>
<path d="M272,249.2l-7.7-11.1c-1.3-1.9-3.3-3.4-5.5-4.1l-29.7-9.9l-23.3-7.8c-1.4-0.5-2.8-0.8-4.2-0.9h-0.1
	c-2.9-0.2-5.5,1.7-6.1,4.5c-1,2.8,0.3,5.9,3,7.1c0.9,0.5,1.8,0.8,2.7,1.1c1.9,0.6,3.7,1.2,5.6,1.9l6.1,2l8.2,2.7
	c6.5,2.1,13.2,4.3,19.7,6.7l-15.6,6.9c-23.2,10.2-46.4,20.4-69.6,30.6c-1.9,1-4.2,1-6.1,0.1c-23.2-9.6-46.4-19.2-69.6-28.8L58,241.2
	c1.1-0.4,2.2-0.8,3.3-1.3c2.1-0.9,3.5-2.9,3.6-5.2c0.1-2-0.6-3.9-2.1-5.2c-1.4-1.2-3.3-1.7-5.1-1.3c-4.7,0.8-9.3,2.2-13.7,4.1
	c-8.8,3.7-15,9.1-18.8,16.6c-0.5,1-1.2,1.9-1.9,2.7l-0.8,1c-1.5,1.9-3.1,3.9-4.6,5.8s-2.8,3.7-4.2,5.5c-3.5,4.9-7.3,9.6-11.3,14.1
	c-1.7,1.7-2.6,4-2.4,6.4c0.1,1.6,0.9,3,2.3,3.7c6.2,3.4,12.6,6.6,19.1,9.3l4.4,2c1.7,0.8,3.3,1.5,5,2.3c2.2,1,3.1,2.4,3,4.7
	c-0.1,1.3-0.1,2.7-0.1,4v6.7c0,8.9,0,17.7,0,26.6c-0.1,3.5,1.8,6.7,4.8,8.4c0.8,0.4,1.5,0.9,2.3,1.2l17,8
	c22.2,10.4,44.4,20.9,66.6,31.3c2.3,1.1,4.6,2.2,6.9,3.3c5.4,2.6,10.9,5.3,16.5,7.6l0.4,0.2c0.7,1.4,2.3,2.2,3.8,2.1h0.1
	c1.5,0.1,3-0.6,3.9-1.8c0.2-0.1,0.4-0.2,0.6-0.3l0.4-0.2c1-0.4,1.9-0.8,2.9-1.3l25.4-12.8c12.1-6.1,24.2-12.1,36.3-18.2
	c11.7-5.8,23.7-11.9,35.7-17.7c5.1-2.5,7.4-6.4,7.1-11.6c-0.2-2.6-0.2-5.3-0.1-7.8c0-1.1,0-2.2,0-3.3c0-2.8,0-5.6,0-8.4
	c0-5,0-10.1-0.1-15.1c-0.1-3.7,0.9-5.4,4-6.7c6.1-2.6,12-5.7,17.8-8.6l3.6-1.9c1.9-1,4.1-2.4,4.7-4.8s-0.7-4.7-1.9-6.4
	C285.7,268.9,278.9,259,272,249.2z M180.1,332.7c0.4,0.5,0.8,1,1.1,1.6s0.8,1.2,1.3,1.7c2.6,3.3,5.9,4.2,9.7,2.6
	c1.2-0.5,2.4-1.1,3.5-1.7l55.4-27.8l0.5-0.3c0,2.5,0,5,0,7.5v5.4c0,6.1,0,12.2,0.1,18.2c0.2,1.2-0.5,2.3-1.6,2.6
	c-5,2.5-10.1,5-15.1,7.5l-69.8,35c-1.8,0.9-3.7,1.8-5.6,2.7l-0.6,0.3v-82.1C166.1,315,173.1,323.9,180.1,332.7L180.1,332.7z
	 M203.3,319.1l-11,5.5c-0.5,0.3-1,0.5-1.6,0.6l0,0c-0.3,0-0.5-0.1-1.2-1l-3.1-4c-2.1-2.8-4.3-5.5-6.4-8.3c-3.9-5-7.8-9.9-11.7-14.9
	l-5.2-6.6c-0.3-0.4-0.5-0.7-0.6-0.9c0.2-0.1,0.5-0.3,1-0.5l77.5-33.9l14-6.2c0.4-0.1,0.8-0.3,1.2-0.5c0.3,0.3,0.6,0.7,0.9,1.1
	l5.3,7.7c5.5,8,11,15.9,16.5,24c-16.9,8.4-33.8,16.9-50.7,25.4L203.3,319.1z M123.7,318.6l-6.2,9.3c-0.2,0.3-0.4,0.5-0.6,0.8
	c-0.4-0.1-0.7-0.3-1.1-0.5c-4.4-2.1-8.7-4.2-13.1-6.3l-2.5-1.2c-27.9-13.2-55.9-26.3-83.8-39.5c6.6-8.5,13.2-17.1,19.7-25.6l5-6.5
	c0.4-0.6,0.7-0.8,0.9-0.8c0.2,0.1,0.5,0.1,0.7,0.2c5.9,2.7,12.1,5.2,18,7.6c2.8,1.1,5.6,2.3,8.4,3.4c24.5,10.1,48.9,20.2,73.6,30.4
	C136.3,299.5,130,309,123.7,318.6L123.7,318.6z M46.6,338.7c0.2-5.6,0.2-11.3,0.2-16.8v-5.4c0-2.4,0-4.7,0-7.1v-0.1h0.1
	c2.4,1,4.9,2.2,7.3,3.4l60.1,28.5c1.2,0.6,2.4,1.1,3.7,1.4c2.1,0.7,4.3,0,5.8-1.6c1-1.2,2-2.4,2.8-3.7l19.4-29.3v34.2l-0.1,46
	c0,0.2,0,0.4,0,0.6c-0.9-0.4-1.7-0.8-2.6-1.2l-93.8-44.4C47,342.1,46.5,341.3,46.6,338.7z"/>
<path d="M173.7,15l10.9,47.8c0.8,3.5,3,4.5,5,4.5c0.5,0,1,0,1.5-0.1c1-0.2,2.1-0.2,3.1-0.1c4.1,0.4,6.1-1,7.1-5
	c1.9-7.4,4-14.9,6.1-22.1l1.5-5.2l0.6,2.1c1.3,4.7,2.7,9.3,4,14c0.7,2.6,1.4,5.1,2.1,7.7l1,3.8c1.3,4.7,4.6,5,6.5,4.8
	c1.5-0.2,3.1-0.2,4.6-0.1c3.1,0.2,4.9-1.1,5.8-4.2c0.3-1.2,0.6-2.4,0.8-3.7l0.4-1.7c3.6-16.3,7.3-33.2,11.3-49.7
	c0.3-1,0.2-2.1-0.3-3c-0.6-0.8-1.6-1.3-2.6-1.3c-2.5-0.3-5-0.3-7.6-0.3h-1c-2-0.1-3.8,1.4-4,3.4c0,0.3-0.1,0.6-0.1,1
	c0,0.4-0.1,0.8-0.2,1.2c-1.8,7.7-3.6,15.3-5.3,23l-0.6,2.5c-1.6-5.5-3.2-11.1-4.8-16.6c-0.6-2.2-1.2-4.3-1.8-6.5l-0.9-3.5
	c-0.3-1.1-1.2-4.5-5.4-4.5h-0.1c-1,0-2,0-3,0h-1.2h-0.1c-2.8-0.2-5.4,1.8-5.8,4.6c-1.2,5.1-2.7,10.2-4.1,15.2c-0.6,2-1.1,4-1.7,6
	c-0.4,1.5-0.9,3.1-1.3,4.6c-1.8-6.5-3.3-13-4.7-18.9l-0.3-1.3c-0.4-1.9-0.9-3.8-1.5-5.6c-0.7-2.6-2.9-4.4-5.6-4.6
	c-2.3-0.2-4.6-0.1-6.9,0.2h-0.5c-0.9,0-1.8,0.5-2.3,1.2c-0.5,0.8-0.7,1.8-0.4,2.8C172.5,9.7,173.1,12.3,173.7,15z"/>
<path d="M228.3,101.6c1-0.3,1.9-0.8,2.8-1.5c2.3-1.6,3.1-4.7,1.8-7.2c-0.9-2.7-3.6-4.4-6.5-3.9c-1.4,0.2-2.8,0.7-4.1,1.2l-0.8,0.3
	c-12.1,4.7-23.1,11.8-32.3,20.9c-11.6,11.5-20.6,25.3-27.5,42.2c-5,12.4-8.4,25.5-10.1,38.8c-1.3,8.9-2.1,17.9-2.2,26.9v1.6
	c0,1.2,0,2.5,0,3.7c0.1,3.8,2.2,5.3,3.9,5.9c0.8,0.3,1.6,0.5,2.5,0.5c1.2,0,2.3-0.3,3.3-1c1.7-1.2,2.8-3.2,2.8-5.3
	c0.1-1.9,0.2-3.8,0.2-5.7l0.2-4.1c0.4-11.7,1.9-23.4,4.4-34.9c3.4-16,9.9-31.2,19.1-44.7C197.1,118.8,211,107.8,228.3,101.6z"/>
<path d="M399.7,59.6c0.8-0.8,1.3-1.9,1.2-3c-0.3-1.1-1-2-2.1-2.5l-0.7-0.4c-0.5-0.3-1-0.6-1.5-0.9c-3.9-2.6-7.8-2.6-11.8,0.1
	c-2.5,1.7-5.5,2.2-8.4,1.4c-2.9-0.8-5.4-2.8-6.6-5.5c0-0.1-0.1-0.2-0.1-0.3h0.4c3.5,0.2,7.1,0.1,10.5,0l3.9-0.1h2.3
	c1.8,0,3.6,0,5.4,0c1,0,2,0,3,0.1l4.1,0.1c3.2,0,5-1.8,5.2-4.9c0.8-13.4-9.3-25-22.7-25.9c-7.6-0.8-14.2,1.3-19.5,6
	c-6,5.3-8.9,12.4-8.4,20.9c0.4,7.6,3.5,13.6,9.1,18.1c4.6,3.7,10.3,5.6,16.2,5.6c2.5,0,4.9-0.3,7.4-0.8
	C391.6,66.3,396.2,63.6,399.7,59.6z M371.2,35c1.5-1.9,3.7-3.2,6.1-3.4c4.2-0.7,7.2,0.4,9.5,3.4c-1.6,0-3.2,0-4.8,0L371.2,35
	L371.2,35z"/>
<path d="M306.1,57.5v0.6c0,1.4,0,2.8,0.1,4.3c0.1,2.6,2.2,4.6,4.7,4.5c0,0,0.1,0,0.1,0c1.9,0.1,3.8,0.1,5.6,0c2.6,0.1,4.8-2,4.8-4.5
	c0-0.1,0-0.2,0-0.2c0-2,0-4.1-0.1-6.2c-0.4-5.8-0.1-11.7,0.8-17.5c0.5-3.1,2-5,4.6-5.9c1.6-0.6,3.3-0.5,4.8,0.2
	c1.2,0.8,2,2.1,2.1,3.5c0.2,1,0.3,2.1,0.3,3.1c0.1,5.7,0.2,11.3,0.2,17c0,0.8,0,1.5,0,2.3c0,1.2-0.1,2.4,0,3.6
	c0,1.5,0.6,2.9,1.7,3.8c0.9,0.7,1.9,1,3,1c0.4,0,0.7,0,1.1-0.1c1.1-0.2,2.3-0.2,3.5-0.1c2.6,0.6,5.3-1,5.9-3.7
	c0.1-0.6,0.2-1.3,0.1-1.9c0-1.7,0-3.5-0.1-5.2c0-2.2-0.1-4.5-0.1-6.7c0-2.7,0-5.4,0-8.1c0-2.1,0-4.2,0-6.4c0-5.6-1.7-9.9-5.3-13.2
	c-5.1-4.6-13-5.5-19.7-2.3c-1,0.5-2,1-3,1.5v-3.7c0-1.8,0-3.7,0-5.5c0-0.9,0-1.8,0.1-2.7c0-1.2,0.1-2.3,0-3.4
	c0.1-2.5-1.8-4.6-4.3-4.7c-0.1,0-0.3,0-0.4,0c-0.6,0-1.3,0-2,0h-2.9c-3.9,0-5.8,1.8-5.8,5.7c0,1,0,2.1,0,3.1c0,0.8,0,1.5,0,2.3
	c0,5.4,0,10.8,0,16.1l-0.1,11.9C306.1,46,306.1,51.8,306.1,57.5z"/>
<path d="M313.4,163.3c-2.9-0.2-5.9-0.3-8.9-0.2c-2.1,0-4.2,0.1-6.3,0c-1.6-0.2-3.3,0.2-4.5,1.3c-1.1,1.3-1.7,2.9-1.5,4.6l0.1,4.5
	c0,2.9,0.1,5.8,0.1,8.7c0,3.1,0,6.2,0,9.3l-0.1,25.3c0,2.1,0,4.1,0,6.2c-0.1,2.1,1.5,3.9,3.6,4c0.1,0,0.2,0,0.3,0
	c0.9,0,1.8,0,2.6,0.1c1.1,0,2.2,0.1,3.3,0.1h0.1c1.6,0.1,3.2-0.4,4.5-1.5c1.1-1.2,1.6-2.9,1.3-4.5c-0.2-3.5-0.2-7.2-0.1-10.7
	c0-2.5,0-4.9,0-7.4c0-0.4,0-0.7,0.1-1.1c0.4-0.1,0.7-0.2,1.1-0.1c1.9,0,3.9-0.1,5.9-0.3c9.7-1.1,16.2-7.7,17-17.4
	c0.5-6.2-1.1-11.1-4.7-14.9C323.2,164.9,317.7,163.8,313.4,163.3z M308,180.4c0-0.3,0-0.6,0-0.9c0-0.3,0-0.6,0.1-0.8
	c0.2-0.1,0.4-0.1,0.6-0.1c2.2-0.2,4.3,0.2,6.3,1.1c1,0.5,1.6,1.6,1.6,2.7c0.1,1.1-0.4,2.1-1.3,2.7c-2.2,1.3-4.7,1.8-7.1,1.4
	c-0.1-0.2-0.1-0.4-0.1-0.6c0-0.7,0-1.5,0-2.2v-0.7C308.1,182.2,308.1,181.3,308,180.4z"/>
<path d="M360,177.6L360,177.6c-6.6,0-12.9,2.6-17.6,7.3c-9.8,10-9.9,26-0.2,36.1c4.7,4.7,11.1,7.3,17.7,7.2h0.1
	c14,0.2,25.5-11.1,25.6-25.1c0-0.2,0-0.3,0-0.5C385.7,189.1,373.9,177.6,360,177.6z M350.5,202.9c-0.1-3,1.1-5.9,3.2-8.1
	c1.7-1.8,4.1-2.8,6.6-2.9h0.1c2.5,0,4.9,1,6.6,2.8c2.1,2.2,3.3,5.2,3.2,8.3c0,2.9-1.1,5.8-3.1,7.9c-2.4,2.6-6.2,3.5-9.5,2.3
	c-3.5-1-5.6-3.5-6.6-7.5C350.5,204.9,350.4,203.9,350.5,202.9z"/>
<path d="M454.2,200.6c0-2.4,0-5.2-0.2-7.9c-0.7-8.4-7.6-14.8-16-15c-4.4,0-8.7,1.3-12.3,3.7c-1-2.3-2.9-3.2-5.8-2.8
	c-1.2,0.2-2.3,0.3-3.5,0.1c-1.4-0.3-2.8-0.1-4,0.8c-1.1,1-1.8,2.4-1.8,3.8c0,0.6,0,1.2,0,1.8c0,0.3,0,0.5,0,0.8c0,4,0,8,0,12
	c0,7.4,0.1,15-0.2,22.5c-0.2,4.7,2.4,6.2,4.6,6.7c2.1,0.4,4.3,0.4,6.5,0c2.7-0.4,4.7-2.8,4.7-5.5c0-0.9,0-1.8,0-2.6
	c-0.3-6.1-0.2-12.3,0.2-18.4c0.2-2.7,1.3-5.3,3.3-7.1c1.4-1.2,3.3-1.6,5-1.2c1.6,0.4,2.8,1.7,3.2,3.3c0.5,1.8,0.7,3.7,0.8,5.6
	c0.3,3.2,0.2,6.6,0.1,9.8c0,2.1-0.1,4.2,0,6.2c0,0.4,0,0.9,0,1.3c0,1.7,0.1,3.4,0.4,5.1c0.3,1.9,1.8,3.4,3.8,3.7
	c0.7,0.1,1.4,0.2,2.1,0.2c0.8,0,1.5-0.1,2.2-0.1c0.5,0,1.1-0.1,1.6-0.1c3.6-0.1,5.3-1.8,5.3-5.5c0-3.2,0-6.4,0-9.7L454.2,200.6
	L454.2,200.6z"/>
<path d="M340.6,113.3c1.1,0.4,2.3,1.3,2.4,4.3c0.1,2.7,0.2,5.4,0.3,8.2c0.1,2.1,0.1,4.2,0.2,6.3c0,1.3,0,2.6,0,3.9
	c-0.1,2.3,0,4.6,0.2,6.9c0.4,3.1,1.9,4.6,5,4.7c0.5,0,1,0,1.6,0h2.2h0.9c3.8,0,5.4-1.7,5.4-5.4v-5.5c0-6.7,0-13.4-0.1-20.2
	c0.1-2.4-0.1-4.7-0.7-7c-2.1-8.3-11.3-12.2-18.6-11.2c-3.2,0.5-6.3,1.7-8.9,3.5c-1.2-2.1-3.7-3.1-6-2.6c-1.2,0.2-2.4,0.3-3.7,0.1
	c-1.3-0.3-2.7,0-3.8,0.9c-1.1,0.9-1.7,2.3-1.6,3.7c0,0.4,0,0.8,0,1.2v17.9l0.1,2.2l0,0v9.7c0,0.9,0,1.7,0,2.6c0,1.5,0,3.1,0,4.6
	c-0.1,2.8,2,5.1,4.8,5.2c0.1,0,0.3,0,0.4,0c1.7,0,3.6,0,5.8-0.1c3.4-0.2,4.5-1.4,4.6-4.9l0-6c0-5,0.1-10.1,0.2-15.1
	c0-2.7,1.1-5.4,3.1-7.2C336,112.6,338.6,112.2,340.6,113.3z"/>
<path d="M220.8,184.2l-1.3,0.7c-1.3,0.6-2.6,1.4-3.7,2.3c-2.1,1.8-2.9,3.8-2.4,6.1c0.5,2.4,2.4,4.3,4.9,4.7c1.4,0.3,2.9,0.5,4.4,0.5
	c0.7,0,1.4,0.1,2.2,0.2c7.3,0.9,11.3,4.3,12.8,10.8c0.6,2.3,1.4,4.6,2.3,6.9l0.6,1.4c0.6,1.9,2.3,3.1,4.3,3.2c0.6,0,1.1-0.1,1.6-0.3
	c1.2-0.5,2.2-1.4,2.8-2.5c1-1.7,2-3.3,3.1-5c1.6-2.5,3.2-5,4.6-7.7c0.7-1.6,2.4-2.5,4.1-2.4c1.4,0,2.7,0,4.2,0h2.4l2-0.1
	c1.8-0.1,3.9-0.2,6-0.4c2.1-0.1,3.9-1.4,4.6-3.3c1-2.5-0.5-4.2-1.3-5.2c-1-1.2-2-2.3-3-3.5c-2.3-2.7-4.6-5.4-7-8.1
	c-0.9-0.9-1.1-2.2-0.7-3.3c1.3-3.9,2.3-8,3.3-11.9l0.8-3c0.7-2.7-0.3-4.3-1-4.9s-2.2-1.7-4.9-1c-2.2,0.5-4.3,1.4-6.2,2.6
	c-4.8,3-9,3.8-13.2,2.5c-3.1-1-5.9-2.8-8.2-5.2l-0.2-0.3c-1.1-1.2-2.4-2.2-3.9-2.9c-0.9-0.4-2-0.5-3-0.4c0.6-0.3,1.1-0.6,1.6-0.9
	c2.5-1.5,3.5-4.7,2.3-7.3c-1.4-3.4-4.5-4.8-8.1-3.6c-8.7,3-16.7,8-24.3,15.5c-8.2,8-14.6,17.8-19.7,29.8c-6.3,14.8-9.6,31.8-10.2,52
	v0.2c0,0.8,0,1.7,0,2.5c-0.1,1.2,0,2.4,0.2,3.6c0.4,2.3,1.9,5,6,5c0.2,0,0.4,0,0.6,0c3.2-0.2,5.3-2.2,5.6-5.6
	c0.2-2.4,0.3-4.9,0.4-7.3c0.1-1.9,0.1-3.7,0.3-5.6c0.6-8.7,2.1-17.3,4.3-25.8c3.6-13.6,8.5-24,15.3-32.6c6.4-8.2,13.5-14,21.7-17.9
	l1.2-0.6c-1.1,1-1.8,2.4-1.8,3.9c0,1.5,0.2,2.9,0.6,4.3l0,0.2c0.9,3.1,1.2,6.5,0.7,9.7C227.7,178.5,225.3,181.6,220.8,184.2z
	 M261.7,170.1c-0.3,1.1-0.7,2.2-1.2,3.2l-0.2,0.4c-1.1,2.3-1.7,4.8-1.6,7.4c0.1,3.5,1.7,6.5,4.7,9.2c1.1,1,2,2,2.9,3.1
	c-9.1-0.5-16,3.1-20.3,10.8c-0.6-1.7-1.3-3.3-2.3-4.8c-3.4-5.7-8.7-8.9-15.8-9.4l0,0c0.5-0.5,1.1-1,1.6-1.4c1-0.8,2.3-1.9,3.7-2.8
	c4-2.7,5.6-6.5,4.6-11.4c-0.4-2.2-0.6-4.4-0.6-6.6c1.1,0.6,2.2,1.4,3.1,2.3c3.6,3.2,7.3,4.4,11.3,3.8c2.6-0.5,5.1-1.5,7.3-3l0.2-0.1
	c0.7-0.5,1.4-0.8,2.1-1.1c0.1,0,0.2-0.1,0.4-0.1C261.8,169.8,261.8,170,261.7,170.1z"/>
<path d="M80.6,90.7c4.2,0.4,8.5,0.4,12.7-0.1c4-0.5,6.8,0.8,8.5,3.8c1.5,2.5,3.2,5,4.9,7.3c0.7,1,1.4,1.9,2.1,2.9
	c0.9,1.5,2.5,2.5,4.3,2.6c0.3,0,0.5,0,0.8-0.1c2-0.3,3.5-1.8,4-3.8l0.8-2.3c1.3-3.8,2.6-7.6,3.5-11.6c0.3-1.8,1.7-3.2,3.5-3.5
	c3.7-1,7.4-2.2,11-3.4l3.1-1c1.9-0.5,3.3-2,3.6-3.9c0.3-1.9-0.6-3.7-2.3-4.7c-0.8-0.6-1.6-1.1-2.4-1.7c-1.9-1.4-3.8-2.7-5.9-3.9
	c-1.5-0.8-2.9-1.9-4.2-3.1c-2.9-2.8-2.8-5-2.4-6.4c0.5-2.2,0.7-4.4,0.7-6.7v-1.3c0-0.5,0-1,0-1.5c0-1.2,0-2.4-0.1-3.7
	c-0.1-1.6-0.9-3-2.3-3.8c-1.5-0.8-3.2-0.7-4.6,0.1c-0.4,0.2-0.7,0.4-1.1,0.7c-1.1,0.8-2.2,1.6-3.3,2.4c-2.7,2-5.6,4.1-8.3,6.3
	c-1.3,1.2-3.1,1.5-4.7,0.7c-3.5-1.4-7-2.5-9.9-3.5l-1.1-0.4c-1.5-0.6-3-1-4.6-1.1c-1.6-0.1-3.2,0.6-4.2,1.9c-0.9,1.3-1,2.9-0.4,4.4
	c0.8,2.1,1.5,4.2,2.1,6.3c0.9,2.7,1.8,5.5,2.9,8.3c0.6,1.3,0.4,2.8-0.6,3.8c-1.8,2.2-3.6,4.6-5.6,7.3c-0.3,0.4-0.6,0.8-0.9,1.2
	c-1.2,1.5-2.2,3-3.1,4.6c-0.9,1.3-1,3-0.3,4.5C77.6,89.8,79,90.7,80.6,90.7z M91.5,80.3c5.5-6.2,6.6-13.2,3.3-20.9
	c-0.2-0.5-0.5-1.1-0.8-1.6c0.3,0.1,0.6,0.3,0.9,0.4c2.1,1.1,4.4,1.9,6.8,2.3c5.1,0.8,9.8-0.8,13.9-4.8c0.7-0.7,1.4-1.4,2.2-2
	c0,1,0,2-0.1,3l-0.1,0.9c-0.2,1.6-0.3,3.2-0.3,4.8c0,3.5,1.8,6.8,4.9,8.6c2,1.2,3.8,2.5,5.8,3.9l0.6,0.4c-2.1,0.8-4.3,1.4-6.6,1.9
	c-4.4,0.7-7.8,4.1-8.5,8.5c-0.5,2.3-1.2,4.5-2,6.7c-1.4-1.7-2.7-3.6-3.8-5.5c-2.1-3.8-5.1-5.6-9.1-5.6c-0.4,0-0.8,0-1.2,0.1
	c-2.4,0.2-4.8,0.2-7.2,0.1C90.7,81.2,91.1,80.8,91.5,80.3L91.5,80.3z"/>
<path d="M20.1,175.6c4.2,1.2,8.8,2.3,13.9,3.4c1.8,0.2,3.2,1.6,3.7,3.3c1.4,4.3,3,8.5,4.8,12.6l0.2,0.4c0.4,0.9,0.9,1.7,1.5,2.5
	c0.8,1,2,1.6,3.2,1.6c1,0,2-0.4,2.8-1c0.9-0.7,1.6-1.6,2.2-2.6c2.8-4.2,5-7.8,7-11.6c1.1-2.1,2.4-2.4,3.3-2.4c4-0.1,7.9-0.4,12-0.7
	l1.9-0.1l0,0l1,0c2,0.2,3.9-0.7,4.9-2.5c1-2,0.6-4.4-1-5.9c-1.3-1.5-2.6-3-3.9-4.5c-1.8-2.2-3.6-4.4-5.7-6.5c-1.1-1-1.6-2.6-1.1-4.1
	c0.3-1.2,0.7-2.4,1-3.6c0.3-0.9,0.6-1.9,0.8-2.9l0.1-0.4c0.7-2.6,1.4-5.2,2-7.8c0.7-2,0-4.2-1.6-5.6c-2.2-1.8-4.6-0.6-5.7-0.1
	c-0.3,0.1-0.6,0.3-0.9,0.5l-1.5,0.8c-0.8,0.5-1.7,0.9-2.5,1.3c-4.6,2.2-8.9,2.8-13.1,1.7c-3.8-1.1-7.2-3.1-10-5.9l-0.3-0.3
	c-0.6-0.6-1.3-1.2-2.1-1.6c-1.6-0.9-3.5-0.9-5.1,0.1c-1.5,1-2.3,2.7-2.2,4.4c0,0.7,0.2,1.4,0.3,2.1l0.1,0.3c1,3.7,1.2,7.5,0.7,11.2
	c-1,5.5-4.1,9.6-9.7,12.6c-1.2,0.6-2.3,1.4-3.3,2.3c-1.3,1.2-2.8,3.1-2.3,5.3S18.5,175.1,20.1,175.6z M36.3,163.9
	c3.5-2.6,4.9-6,4.1-10.1c-0.4-2.4-0.6-4.8-0.7-7.2c0,0,0-0.1,0-0.1c1.9,1,3.7,2.2,5.4,3.6c3.4,3.1,8.5,3.6,12.4,1.3
	c0.8-0.4,1.6-0.9,2.4-1.3l1.5-0.8c0.7-0.4,1.4-0.7,2.1-0.9c0.2-0.1,0.4-0.1,0.6,0c0.1,0.2,0.1,0.4,0,0.6c-0.3,1.4-0.8,2.8-1.4,4.1
	l-0.4,0.9c-0.7,1.5-1.1,3.1-1.3,4.7c-0.2,3.1,1,6.2,3.3,8.2c1.6,1.6,3,3.3,4.5,5.1l0.3,0.4c-1.4,0.1-2.8,0.1-4.2,0.1h-2h-0.5
	c-0.9,0-1.8,0-2.7,0.1c-3.3,0.4-6.2,2.6-7.7,5.6c-1.1,2.1-2.3,4.2-3.6,6.2c-0.4-1.4-0.8-2.8-1.4-4.2c-3-7.1-8.6-11-16.5-11.7
	l0.4-0.3C32.7,166.7,34.5,165.3,36.3,163.9z"/>
<path d="M285.7,53.5c-1,0.2-2.1,0.2-3.1,0c-1.9-0.5-3.6-1.5-5.1-2.8c-2.3-1.8-4-0.9-4.8-0.1l-0.7,0.6c-1.3,1.1-2.5,2.3-3.7,3.5
	c-2.2,2-2.3,5.5-0.3,7.7c0.4,0.4,0.8,0.7,1.2,1c4.5,3.2,8.8,4.8,13.3,4.8h0.8c2.2,0.1,4.5-0.2,6.6-0.9c8.4-2.4,13.3-10.5,11.4-18.7
	c-1.1-4.8-4.5-7.7-7-9.4c-2.4-1.6-5-3-7.6-4.3l-2.1-1.1c-0.7-0.3-1.3-0.7-1.9-1.2l0.2-0.2c0.5-0.1,1.1-0.2,1.7-0.1
	c1.4,0.1,2.6,0.9,3.9,2.2c1,1.1,2.4,1.7,3.9,1.7c1.4-0.3,2.7-1.2,3.4-2.5c0.7-0.9,1.5-1.7,2.4-2.3c2.1-1.4,2.6-4.2,1.2-6.3
	c-0.1-0.1-0.2-0.2-0.2-0.3c-0.4-0.5-0.8-1.1-1.2-1.5c-5.9-6.2-17.3-7.3-24.3-2.4c-6.4,4.2-8.2,12.7-4,19.1c0.4,0.6,0.8,1.1,1.2,1.6
	c1.5,1.8,3.3,3.4,5.4,4.6c1.6,0.9,3.2,1.8,4.8,2.7l2.5,1.4l0.4,0.2c0.8,0.4,1.5,0.9,2.2,1.4c0.5,0.5,0.4,0.8,0.4,1
	C286.4,53.3,286.1,53.4,285.7,53.5z"/>
<path d="M516.7,206.9c-1.4-3.2-3.8-5.9-6.8-7.8c-2.1-1.4-4.2-2.6-6.5-3.6l-2.2-1.1c-0.9-0.4-1.7-0.9-2.5-1.4l-0.2-0.2
	c0-0.1,0.1-0.2,0.2-0.3c0.2-0.2,0.6-0.8,1.7-0.3c1.1,0.5,2.1,1,3,1.7c0.6,0.4,1.3,0.8,1.9,1.2c2.6,1.5,5,1,6.6-1.5
	c0.6-1,1.4-1.9,2.4-2.6c1.9-1.2,2.5-3.8,1.2-5.7c-0.1-0.1-0.1-0.2-0.2-0.3c-0.4-0.5-0.8-1.1-1.3-1.5c-4.7-4.8-14-7.8-21.9-4.1
	c-6.7,3.2-9.9,9.4-8.4,16.3c1,4.8,4.4,7.6,7.2,9.6c1.9,1.3,3.9,2.4,5.9,3.5c0.8,0.4,1.6,0.8,2.3,1.3l0.5,0.3
	c0.8,0.4,1.6,0.9,2.3,1.4c0.3,0.2,0.5,0.5,0.5,0.9c-0.1,0.4-0.4,0.7-0.8,0.9c-0.6,0.2-1.3,0.3-1.9,0.2c-1.8-0.1-3.4-1-5.4-2.3
	c-1.5-0.9-3-1.7-4.8-1.4s-2.8,1.8-3.8,3.3l-0.1,0.2c-0.3,0.5-0.7,1-1.1,1.4c-2,1.1-2.8,3.5-1.7,5.6c0.3,0.6,0.7,1.1,1.3,1.4
	c3.8,4,9.2,6.2,14.7,6.1h0.6c2.3,0,4.5-0.2,6.7-0.8c4.4-1.3,8.1-4.3,10.1-8.5C518,215.2,518.2,210.8,516.7,206.9z"/>
<path d="M423.3,68.2c2.8,0.1,5.6-0.4,8.3-1.4c5-1.8,8.8-6,9.9-11.2c1.1-5-0.4-10.2-4.1-13.9c-2.2-2.2-4.8-3.9-7.6-5.3
	c-2.1-1.1-4.5-2.2-6.8-3.5l-0.2-0.1c0.1-0.1,0.1-0.2,0.2-0.3c0.3-0.4,0.6-0.7,1.7-0.4c1.5,0.5,2.9,1.3,4.1,2.5
	c1.6,1.8,4.4,2,6.2,0.4c0.4-0.4,0.8-0.8,1-1.4c0.5-0.9,1.2-1.6,2-2.2c1.1-0.8,1.9-1.9,2.1-3.3c0.1-1.4-0.3-2.8-1.2-3.9
	c-0.4-0.5-0.8-0.9-1.3-1.4c-5-4.4-11.8-6.2-18.3-4.6c-5.7,1.3-9.7,4.9-11.1,10.3s0,10.2,4.1,14.4c2,1.9,4.3,3.5,6.8,4.7l1.8,1
	c1.7,0.9,3.4,1.8,5,2.8c0.8,0.5,0.8,0.7,0.7,0.9c-0.1,0.8-0.6,1.4-1.3,1.7c-0.5,0.1-1,0.1-1.5,0c-2.2-0.5-4.3-1.5-6-2.9
	c-2.6-2.2-4.5-0.7-5.1-0.2c-1.4,1.2-2.8,2.5-4.1,3.9c-1.3,1.2-2,2.9-1.8,4.6c0.2,1.7,1.2,3.2,2.6,4.1c4.5,3.2,8.8,4.8,13.3,4.8
	L423.3,68.2z"/>
<path d="M483.7,187.8c0-0.4,0-0.8-0.1-1.2c-0.1-0.5-0.1-1,0-1.5c0.2-1.5,0.5-3.5-0.8-5s-3.2-1.4-4.7-1.3c-0.3,0-0.6,0-0.9-0.1
	c0,0-0.2-0.2-0.2-1c0-0.3,0-0.5,0-0.8c0-0.4,0-0.9,0-1.3c0-1.1,0-2.2,0-3.4c0.1-2.3,0-4.5-0.3-6.8c-0.2-2.1-1.8-3.7-3.9-4
	c-1.4-0.2-2.8-0.3-4.2-0.2H468c-1.9,0-3.9,0.2-5.3,1.6s-1.4,3.4-1.3,5.5c0.1,3.2,0.1,6.5,0,9.7v0.4c0,0.1,0,0.2,0,0.2
	c-0.1,0-0.2,0.1-0.4,0.1c-0.2,0-0.5,0-0.7,0h-0.5c-1.1,0-2.2,0.4-3,1.2c-0.7,0.8-1,1.8-0.9,2.8c0.1,1.2,0,2.3-0.1,3.5
	c0,0.6-0.1,1.3-0.1,1.9c-0.1,2.5,1.1,3.9,3.7,4.2c2,0.3,2.1,0.3,2.1,2.4c0,3.1,0,6.3,0,9.4v4.8c0,0.8,0,1.5,0,2.3
	c0.1,2.5,0.1,5,0,7.6c0,1.1-0.1,2.1-0.1,3.2c-0.2,2.6,1.6,4.8,4.2,5.1c0.2,0,0.4,0,0.5,0c1,0,2,0,3,0s2.1,0,3.1,0
	c2.5,0.1,4.6-1.8,4.7-4.3c0.1-0.6,0.1-1.3,0.1-1.9c-0.2-5.9-0.2-11.9-0.1-17.7c0-3.1,0-6.3,0-9.4c0-0.3,0-0.7,0.1-1
	c0.4-0.1,0.8-0.1,1.2,0c1.4,0.3,2.9-0.1,4-1C483.4,190.7,483.9,189.3,483.7,187.8z"/>
<path d="M115.7,237.3c1,4.8,1.4,9.6,1.4,14.5c0,4,2.3,6.5,6.1,6.7h0.4c3.4,0,5.8-2.4,6.1-6.2c0-0.4,0-0.7,0-1.1v-0.4
	c-0.2-5.6-0.8-11.2-1.9-16.8c-4.5-22.3-16.7-39.6-36.2-51.5c-1.4-0.9-2.9-1.6-4.5-2c-2.6-0.6-5.3,0.6-6.5,3
	c-1.9,3.3-0.7,5.7,0.6,7.2c1,1,2.2,1.9,3.5,2.6l0.3,0.2C101.6,203.2,111.6,217.5,115.7,237.3z"/>
<path d="M131.4,203.8c2.1-0.2,5.6-1.4,5.6-7v-0.1c0-0.4,0-0.8-0.1-1.2c-0.8-5.4-1.6-9.8-2.7-14c-0.9-3.7-2-7.4-3.3-11
	c-1.1-3.2-4.5-4.9-7.7-3.9c-0.1,0-0.3,0.1-0.4,0.1c-3.3,1.1-4.7,4-3.8,7.5c2.3,8,4.1,16.2,5.5,24.5c0.3,3,2.9,5.2,5.9,5.1
	C130.8,203.8,131.1,203.8,131.4,203.8z"/>
<path d="M71,120c6.5,2.9,12.5,6.6,18,11.1c1.1,1,2.5,1.5,3.9,1.6h0.3c2.3,0,4.5-1.3,5.5-3.5c1.2-2,1-4.6-0.4-6.4
	c-0.6-0.7-1.2-1.4-1.9-2c-5.9-5.1-12.6-9.2-19.8-12.1c-2.1-0.9-4.6-0.7-6.5,0.8c-1.8,1.3-2.8,3.4-2.6,5.6
	C67.7,117.2,69,119.1,71,120z"/>
<path d="M253.8,18.9c-0.2,0-0.5,0-0.7,0c-2.7-0.1-4.9,2.1-5,4.8c0,0,0,0.1,0,0.1c0,0.6,0,1.2,0,1.8c0.3,5.2,0.3,10.4,0.2,15.5v11.8
	c0,2.9,0,5.8,0,8.8c0,4.1,2.5,5.1,4.6,5.2c1,0.1,2.1,0.1,3.3,0.1c0.9,0,1.9,0,3-0.1c2.3,0,4.2-1.8,4.4-4.1c0.1-1,0.1-2.1,0-3.1
	c0-0.4,0-0.8,0-1.2V52c0-4.9,0-9.9,0-14.8c0-4.4,0-8.4,0.2-12.4c0.4-2.8-1.4-5.4-4.2-5.8c-0.3-0.1-0.6-0.1-1-0.1
	c1.5-0.5,2.9-1.3,4-2.4c1.8-1.8,2.9-4.3,2.9-6.9c-0.2-5.2-4.3-9.3-9.4-9.6c-2.4-0.1-4.7,0.9-6.3,2.6c-3.8,3.9-3.8,10.1,0,14
	C250.9,17.7,252.3,18.5,253.8,18.9z"/>
<path d="M311,90.3c0-5.2-4.1-9.4-9.3-9.7c-2.4,0-4.7,0.9-6.4,2.6c-1.9,1.8-2.9,4.3-2.9,6.9c0,4.1,2.5,7.8,6.4,9.2
	c-1.3-0.1-2.6,0.3-3.6,1.1c-1.1,1.1-1.6,2.6-1.5,4.1c0,0.9,0,1.9,0,2.8s0,1.8,0,2.6v12.4c0,5.5,0,10.9,0,16.4c0,1.4,0.1,2.9,0.2,4.3
	c0.2,2.6,1.6,4,4.2,4.5c0.7,0.1,1.4,0.2,2.1,0.2c0.8,0,1.6-0.1,2.3-0.1s1.2-0.1,1.7-0.1c3.3-0.1,4.9-1.8,4.9-5v-24.3
	c0-4.7,0-9.3,0-14c0.1-1.5-0.5-3-1.6-4c-0.8-0.6-1.7-1-2.8-1c1.2-0.5,2.3-1.2,3.2-2.1C309.9,95.3,311,92.9,311,90.3z"/>
<path d="M406.7,169.8c0.1-5.2-4.1-9.4-9.2-9.5c-0.1,0-0.1,0-0.2,0h-0.1c-4.9-0.1-9,3.8-9.2,8.7c0,0.2,0,0.4,0,0.5
	c0,2.6,1,5.1,2.8,6.9c1.1,1.1,2.4,1.9,3.8,2.3c-1.4,0.1-2.7,0.7-3.7,1.6c-1.5,1.6-1.6,3.9-1.5,6.1c0.2,4.8,0.3,10,0.2,16.3
	l-0.1,10.3l0,6.5c0,1.2,0.1,2.4,0.3,3.6c0.3,2,1.8,3.5,3.8,3.8c1.1,0.2,2.1,0.3,3.2,0.3c0.5,0,1,0,1.5,0h1.2c3.6,0,5.4-1.9,5.4-5.6
	v-18.4l-0.2-2.2v-1.5c0-2.9,0-5.8,0-8.7c0-0.9,0.1-1.9,0.1-2.8c0.1-1.4,0.2-2.9,0.1-4.3c0-2.4-1.8-4.5-4.2-5
	c-0.2-0.1-0.5-0.1-0.8-0.1c1.4-0.4,2.7-1.2,3.8-2.3C405.7,174.7,406.7,172.3,406.7,169.8z"/>
<path d="M248.3,120L248.3,120c2.1,0.1,4-0.9,5.2-2.6c1.1-1.7,1.3-3.8,0.5-5.7c-1.2-3.1-3.5-5.6-6.5-7.1c-1.9-1-4.2-0.9-6,0.3
	c-1.8,1.2-2.9,3.3-2.8,5.4c0.1,3.5,5.2,9.1,8.6,9.6c0.2,0,0.4,0,0.6,0h0.3l0.1-2.2l0,0L248.3,120z"/>
<path d="M270.9,105.4c-1.9-1.7-4.8-1.9-7-0.6c-2.3,1.3-4.2,3.1-5.5,5.3c-0.7,1.1-1.1,2.3-1.1,3.6c0,2.2,1.1,4.3,3,5.4
	c0.9,0.6,1.9,0.8,3,0.9c0.9,0,1.9-0.2,2.7-0.6c2.9-1.5,5.2-3.9,6.5-6.9C273.5,110.1,272.9,107.2,270.9,105.4z"/>
<path d="M241.3,137.5c0.9,0.6,2,0.9,3.1,0.9c0.9,0,1.9-0.2,2.7-0.6c2.8-1.2,5-3.3,6.5-5.9c1.8-2.8,1.1-6.5-1.7-8.3
	c-1.8-1.2-4.1-1.3-6-0.3c-2.9,1.3-5.2,3.5-6.6,6.3c-0.4,0.8-0.6,1.7-0.6,2.6C238.6,134.3,239.6,136.3,241.3,137.5z"/>
<path d="M264.5,122.8c-2-0.4-4,0.1-5.5,1.5c-1.4,1.4-2,3.3-1.6,5.3c0.1,0.8,0.4,1.7,0.8,2.4c1.2,2.3,3.1,4.2,5.3,5.5
	c0.9,0.6,2,1,3.2,1h0.4c1.7,0,3.4-0.7,4.5-1.9c1.1-1.3,1.6-3,1.3-4.7C272.4,127.9,268.2,123.4,264.5,122.8z"/>
<path d="M72.7,235.8c1.1,1.3,2.8,2.1,4.5,2.1h0.3c3.1,0,5.4-1.6,6.9-4.7c0.8-1.8,0.8-3.8-0.2-5.5c-1-1.7-2.7-2.8-4.6-3.1
	c-4.1-0.4-7.1,1.9-8,6C71.1,232.4,71.5,234.3,72.7,235.8z"/>
<path d="M107.8,132.8L107.8,132.8c-3.3,0-5.6,1.9-6.1,4.8c-0.4,2.2,0.2,4.4,1.6,6.1c1.3,1.5,3.1,2.4,5.1,2.5
	c-3.8,0.3-6.8,3.6-6.8,7.4c-0.1,1.6,0.5,3.1,1.6,4.3c1.2,1.2,2.9,1.8,4.5,1.7l0,0c1.9,0,3.8-0.7,5.2-2.1c1.4-1.4,2.1-3.4,2.1-5.4
	c-0.2-3.2-2.7-5.7-5.9-5.9c0.4,0,0.9-0.1,1.3-0.1c3.4-0.7,4.2-3.9,4.5-5c0.4-1.8-0.1-3.7-1.3-5.1
	C112.3,134.1,110.1,132.9,107.8,132.8z"/>
<path d="M78.7,224.3h0.1c1.6,0,3.2-0.6,4.4-1.7c1.1-1.1,1.7-2.7,1.7-4.3c-0.1-4-3.2-7.3-7.1-7.6c-3.4,0-6.2,2.7-6.4,6.1
	c-0.2,3.9,2.9,7.2,6.8,7.4C78.4,224.3,78.5,224.3,78.7,224.3z"/>
<path d="M163.9,120.8L163.9,120.8c3.3,0,6-2.7,6-6c0,0,0-0.1,0-0.1c0.1-1.9-0.6-3.7-1.9-5c-1.4-1.5-3.4-2.3-5.4-2.3l0,0
	c-3.6,0.1-6,2.3-6.1,5.9c-0.2,3.9,2.8,7.3,6.7,7.5C163.4,120.7,163.6,120.7,163.9,120.8L163.9,120.8z"/>
<path d="M87,235.8c1.4,1.4,3.2,2.1,5.2,2.1h0.1c3.3,0.1,6-2.5,6.1-5.8c0-0.1,0-0.2,0-0.4c0-1.9-0.7-3.7-2-5.1
	c-1.4-1.4-3.3-2.2-5.3-2.2l0,0c-3.2-0.1-5.9,2.3-6,5.5c0,0.1,0,0.3,0,0.4C84.9,232.4,85.6,234.3,87,235.8z"/>
<path d="M150.3,107.4L150.3,107.4c-2,0-3.8,0.7-5.2,2.1c-1.3,1.4-2.1,3.3-2,5.3c0,3.4,2.7,6.1,6.1,6.2l0,0c1.8,0,3.6-0.8,4.8-2.1
	c1.5-1.5,2.3-3.4,2.4-5.5c0.1-1.6-0.6-3.2-1.7-4.4C153.4,107.9,151.9,107.3,150.3,107.4z"/>
<path d="M56.7,94.9h0.1c2,0,3.9-0.7,5.4-2.1c1.3-1.3,2-3,1.9-4.8c-0.1-4.1-2.3-6.5-5.8-6.5l0,0c-3.9-0.2-7.3,2.9-7.4,6.8
	c0,0.1,0,0.3,0,0.4c-0.2,3.2,2.2,6,5.4,6.2C56.4,94.9,56.6,94.9,56.7,94.9z"/>
<path d="M122.6,132.8c-2-0.1-3.9,0.6-5.4,2c-1.4,1.4-2.1,3.3-2.1,5.3c-0.2,3.1,2.1,5.8,5.2,6.1c0.3,0,0.5,0,0.8,0h0.1
	c3.9,0,7.1-3,7.3-6.9c0.1-1.7-0.5-3.4-1.7-4.7C125.7,133.4,124.2,132.8,122.6,132.8z"/>
<path d="M150.3,107.2L150.3,107.2c1.7,0.1,3.3-0.5,4.5-1.7c1.1-1.2,1.7-2.7,1.6-4.3c0-2-0.8-3.9-2.2-5.3c-1.3-1.3-3.1-2.1-5-2.1
	c-3.3-0.1-6,2.6-6.1,5.9c0,0.1,0,0.1,0,0.2c-0.2,3.8,2.8,7.1,6.6,7.2C149.9,107.2,150.1,107.2,150.3,107.2z"/>
<path d="M91.3,224.3c1.8,0,3.5-0.7,4.8-1.9c1.4-1.4,2.1-3.3,2.1-5.2c0-3.7-2.3-6.1-5.8-6.2c-2,0-3.9,0.7-5.4,2
	c-1.4,1.4-2.1,3.3-2.1,5.2c0,3.6,2.5,6,6.2,6.1L91.3,224.3z"/>
<path d="M44.7,94.9L44.7,94.9c1.6,0,3.1-0.6,4.2-1.8c1.3-1.3,1.9-3.1,1.9-4.9c0-3.5-3.6-6.8-7.4-6.8l0,0c-3.6,0-5.9,2.4-5.9,6.1
	c-0.2,3.8,2.7,7.1,6.5,7.3C44.3,94.9,44.5,94.9,44.7,94.9z"/>
<path d="M43.5,108.4h0.1c3.9-0.2,7-3.3,7.2-7.1c0,1.9,0.8,3.7,2.2,5.1c1.3,1.3,3.1,2.1,4.9,2.1l0,0c3.2,0.2,6-2.3,6.2-5.6
	c0-0.1,0-0.3,0-0.4c0.2-3.9-2.8-7.3-6.8-7.5c-0.2,0-0.3,0-0.5,0c-1.6-0.1-3.1,0.5-4.3,1.6c-1.2,1.2-1.8,2.8-1.8,4.4
	c0-1.6-0.7-3.1-1.8-4.2c-1.2-1.2-2.8-1.8-4.5-1.8l0,0c-4.2,0.1-7.1,3.1-7.1,7.5c-0.1,1.6,0.5,3.1,1.7,4.3
	C40.3,107.8,41.9,108.4,43.5,108.4z"/>
<path d="M162.5,107.2L162.5,107.2c2,0.1,3.9-0.7,5.3-2.1c1.3-1.4,2.1-3.3,2-5.2c0-3.3-2.6-6-5.9-6.1c-0.1,0-0.2,0-0.3,0l0,0
	c-3.9,0.1-7,3.3-7.1,7.3c-0.1,1.6,0.5,3.2,1.6,4.4C159.3,106.6,160.9,107.2,162.5,107.2z"/>
<path d="M116.7,148c-1.1,1.2-1.7,2.7-1.6,4.3c-0.1,2,0.7,3.9,2.1,5.3c1.4,1.3,3.2,2,5.1,2h0.1c1.6,0,3.2-0.6,4.3-1.8
	c1.2-1.2,1.8-2.9,1.7-4.5c-0.1-3.9-3.4-7-7.3-7C119.5,146.3,117.9,146.9,116.7,148z"/>
</svg>
